G04 #@! TF.GenerationSoftware,KiCad,Pcbnew,(5.1.9)-1*
G04 #@! TF.CreationDate,2021-08-25T15:57:18+03:00*
G04 #@! TF.ProjectId,ZigbeeShild01,5a696762-6565-4536-9869-6c6430312e6b,rev?*
G04 #@! TF.SameCoordinates,Original*
G04 #@! TF.FileFunction,Soldermask,Bot*
G04 #@! TF.FilePolarity,Negative*
%FSLAX46Y46*%
G04 Gerber Fmt 4.6, Leading zero omitted, Abs format (unit mm)*
G04 Created by KiCad (PCBNEW (5.1.9)-1) date 2021-08-25 15:57:18*
%MOMM*%
%LPD*%
G01*
G04 APERTURE LIST*
%ADD10R,9.400000X10.800000*%
%ADD11R,4.600000X1.100000*%
%ADD12O,1.700000X1.700000*%
%ADD13R,1.700000X1.700000*%
%ADD14R,1.500000X2.000000*%
%ADD15R,3.800000X2.000000*%
%ADD16O,2.000000X1.700000*%
%ADD17R,3.300000X2.500000*%
%ADD18C,6.200000*%
G04 APERTURE END LIST*
G36*
G01*
X73044000Y-40074001D02*
X73044000Y-39173999D01*
G75*
G02*
X73293999Y-38924000I249999J0D01*
G01*
X73819001Y-38924000D01*
G75*
G02*
X74069000Y-39173999I0J-249999D01*
G01*
X74069000Y-40074001D01*
G75*
G02*
X73819001Y-40324000I-249999J0D01*
G01*
X73293999Y-40324000D01*
G75*
G02*
X73044000Y-40074001I0J249999D01*
G01*
G37*
G36*
G01*
X71219000Y-40074001D02*
X71219000Y-39173999D01*
G75*
G02*
X71468999Y-38924000I249999J0D01*
G01*
X71994001Y-38924000D01*
G75*
G02*
X72244000Y-39173999I0J-249999D01*
G01*
X72244000Y-40074001D01*
G75*
G02*
X71994001Y-40324000I-249999J0D01*
G01*
X71468999Y-40324000D01*
G75*
G02*
X71219000Y-40074001I0J249999D01*
G01*
G37*
D10*
X18288000Y-37592000D03*
D11*
X27438000Y-40992000D03*
X27438000Y-39292000D03*
X27438000Y-37592000D03*
X27438000Y-35892000D03*
X27438000Y-34192000D03*
D12*
X55372000Y-32258000D03*
X52832000Y-32258000D03*
X50292000Y-32258000D03*
X47752000Y-32258000D03*
X45212000Y-32258000D03*
D13*
X42672000Y-32258000D03*
G36*
G01*
X49079999Y-44088000D02*
X49980001Y-44088000D01*
G75*
G02*
X50230000Y-44337999I0J-249999D01*
G01*
X50230000Y-44863001D01*
G75*
G02*
X49980001Y-45113000I-249999J0D01*
G01*
X49079999Y-45113000D01*
G75*
G02*
X48830000Y-44863001I0J249999D01*
G01*
X48830000Y-44337999D01*
G75*
G02*
X49079999Y-44088000I249999J0D01*
G01*
G37*
G36*
G01*
X49079999Y-42263000D02*
X49980001Y-42263000D01*
G75*
G02*
X50230000Y-42512999I0J-249999D01*
G01*
X50230000Y-43038001D01*
G75*
G02*
X49980001Y-43288000I-249999J0D01*
G01*
X49079999Y-43288000D01*
G75*
G02*
X48830000Y-43038001I0J249999D01*
G01*
X48830000Y-42512999D01*
G75*
G02*
X49079999Y-42263000I249999J0D01*
G01*
G37*
G36*
G01*
X74364001Y-36430000D02*
X73463999Y-36430000D01*
G75*
G02*
X73214000Y-36180001I0J249999D01*
G01*
X73214000Y-35654999D01*
G75*
G02*
X73463999Y-35405000I249999J0D01*
G01*
X74364001Y-35405000D01*
G75*
G02*
X74614000Y-35654999I0J-249999D01*
G01*
X74614000Y-36180001D01*
G75*
G02*
X74364001Y-36430000I-249999J0D01*
G01*
G37*
G36*
G01*
X74364001Y-38255000D02*
X73463999Y-38255000D01*
G75*
G02*
X73214000Y-38005001I0J249999D01*
G01*
X73214000Y-37479999D01*
G75*
G02*
X73463999Y-37230000I249999J0D01*
G01*
X74364001Y-37230000D01*
G75*
G02*
X74614000Y-37479999I0J-249999D01*
G01*
X74614000Y-38005001D01*
G75*
G02*
X74364001Y-38255000I-249999J0D01*
G01*
G37*
G36*
G01*
X72536000Y-33216001D02*
X72536000Y-32315999D01*
G75*
G02*
X72785999Y-32066000I249999J0D01*
G01*
X73311001Y-32066000D01*
G75*
G02*
X73561000Y-32315999I0J-249999D01*
G01*
X73561000Y-33216001D01*
G75*
G02*
X73311001Y-33466000I-249999J0D01*
G01*
X72785999Y-33466000D01*
G75*
G02*
X72536000Y-33216001I0J249999D01*
G01*
G37*
G36*
G01*
X70711000Y-33216001D02*
X70711000Y-32315999D01*
G75*
G02*
X70960999Y-32066000I249999J0D01*
G01*
X71486001Y-32066000D01*
G75*
G02*
X71736000Y-32315999I0J-249999D01*
G01*
X71736000Y-33216001D01*
G75*
G02*
X71486001Y-33466000I-249999J0D01*
G01*
X70960999Y-33466000D01*
G75*
G02*
X70711000Y-33216001I0J249999D01*
G01*
G37*
D14*
X41642000Y-38950500D03*
X46242000Y-38950500D03*
X43942000Y-38950500D03*
D15*
X43942000Y-45250500D03*
G36*
G01*
X37584000Y-45118000D02*
X37584000Y-46068000D01*
G75*
G02*
X37334000Y-46318000I-250000J0D01*
G01*
X36834000Y-46318000D01*
G75*
G02*
X36584000Y-46068000I0J250000D01*
G01*
X36584000Y-45118000D01*
G75*
G02*
X36834000Y-44868000I250000J0D01*
G01*
X37334000Y-44868000D01*
G75*
G02*
X37584000Y-45118000I0J-250000D01*
G01*
G37*
G36*
G01*
X39484000Y-45118000D02*
X39484000Y-46068000D01*
G75*
G02*
X39234000Y-46318000I-250000J0D01*
G01*
X38734000Y-46318000D01*
G75*
G02*
X38484000Y-46068000I0J250000D01*
G01*
X38484000Y-45118000D01*
G75*
G02*
X38734000Y-44868000I250000J0D01*
G01*
X39234000Y-44868000D01*
G75*
G02*
X39484000Y-45118000I0J-250000D01*
G01*
G37*
D12*
X69126100Y-26733500D03*
X69126100Y-29273500D03*
X66586100Y-26733500D03*
X66586100Y-29273500D03*
X64046100Y-26733500D03*
X64046100Y-29273500D03*
X61506100Y-26733500D03*
X61506100Y-29273500D03*
X58966100Y-26733500D03*
X58966100Y-29273500D03*
X56426100Y-26733500D03*
X56426100Y-29273500D03*
X53886100Y-26733500D03*
X53886100Y-29273500D03*
X51346100Y-26733500D03*
X51346100Y-29273500D03*
X48806100Y-26733500D03*
X48806100Y-29273500D03*
X46266100Y-26733500D03*
X46266100Y-29273500D03*
X43726100Y-26733500D03*
X43726100Y-29273500D03*
X41186100Y-26733500D03*
X41186100Y-29273500D03*
X38646100Y-26733500D03*
X38646100Y-29273500D03*
X36106100Y-26733500D03*
X36106100Y-29273500D03*
X33566100Y-26733500D03*
X33566100Y-29273500D03*
X31026100Y-26733500D03*
X31026100Y-29273500D03*
X28486100Y-26733500D03*
X28486100Y-29273500D03*
X25946100Y-26733500D03*
X25946100Y-29273500D03*
X23406100Y-26733500D03*
X23406100Y-29273500D03*
X20866100Y-26733500D03*
D13*
X20866100Y-29273500D03*
D16*
X72390000Y-41950000D03*
G36*
G01*
X73140000Y-45300000D02*
X71640000Y-45300000D01*
G75*
G02*
X71390000Y-45050000I0J250000D01*
G01*
X71390000Y-43850000D01*
G75*
G02*
X71640000Y-43600000I250000J0D01*
G01*
X73140000Y-43600000D01*
G75*
G02*
X73390000Y-43850000I0J-250000D01*
G01*
X73390000Y-45050000D01*
G75*
G02*
X73140000Y-45300000I-250000J0D01*
G01*
G37*
D17*
X34036000Y-40259000D03*
X34036000Y-33459000D03*
G36*
G01*
X26424000Y-46449000D02*
X26424000Y-45499000D01*
G75*
G02*
X26674000Y-45249000I250000J0D01*
G01*
X27174000Y-45249000D01*
G75*
G02*
X27424000Y-45499000I0J-250000D01*
G01*
X27424000Y-46449000D01*
G75*
G02*
X27174000Y-46699000I-250000J0D01*
G01*
X26674000Y-46699000D01*
G75*
G02*
X26424000Y-46449000I0J250000D01*
G01*
G37*
G36*
G01*
X24524000Y-46449000D02*
X24524000Y-45499000D01*
G75*
G02*
X24774000Y-45249000I250000J0D01*
G01*
X25274000Y-45249000D01*
G75*
G02*
X25524000Y-45499000I0J-250000D01*
G01*
X25524000Y-46449000D01*
G75*
G02*
X25274000Y-46699000I-250000J0D01*
G01*
X24774000Y-46699000D01*
G75*
G02*
X24524000Y-46449000I0J250000D01*
G01*
G37*
G36*
G01*
X26286000Y-49055000D02*
X26286000Y-50005000D01*
G75*
G02*
X26036000Y-50255000I-250000J0D01*
G01*
X25536000Y-50255000D01*
G75*
G02*
X25286000Y-50005000I0J250000D01*
G01*
X25286000Y-49055000D01*
G75*
G02*
X25536000Y-48805000I250000J0D01*
G01*
X26036000Y-48805000D01*
G75*
G02*
X26286000Y-49055000I0J-250000D01*
G01*
G37*
G36*
G01*
X28186000Y-49055000D02*
X28186000Y-50005000D01*
G75*
G02*
X27936000Y-50255000I-250000J0D01*
G01*
X27436000Y-50255000D01*
G75*
G02*
X27186000Y-50005000I0J250000D01*
G01*
X27186000Y-49055000D01*
G75*
G02*
X27436000Y-48805000I250000J0D01*
G01*
X27936000Y-48805000D01*
G75*
G02*
X28186000Y-49055000I0J-250000D01*
G01*
G37*
D18*
X16000000Y-51000000D03*
X74000000Y-28000000D03*
X74000000Y-51000000D03*
X16000000Y-28000000D03*
M02*
