G04 #@! TF.GenerationSoftware,KiCad,Pcbnew,(5.1.9)-1*
G04 #@! TF.CreationDate,2021-08-25T15:57:18+03:00*
G04 #@! TF.ProjectId,ZigbeeShild01,5a696762-6565-4536-9869-6c6430312e6b,rev?*
G04 #@! TF.SameCoordinates,Original*
G04 #@! TF.FileFunction,Copper,L2,Bot*
G04 #@! TF.FilePolarity,Positive*
%FSLAX46Y46*%
G04 Gerber Fmt 4.6, Leading zero omitted, Abs format (unit mm)*
G04 Created by KiCad (PCBNEW (5.1.9)-1) date 2021-08-25 15:57:18*
%MOMM*%
%LPD*%
G01*
G04 APERTURE LIST*
G04 #@! TA.AperFunction,SMDPad,CuDef*
%ADD10R,9.400000X10.800000*%
G04 #@! TD*
G04 #@! TA.AperFunction,SMDPad,CuDef*
%ADD11R,4.600000X1.100000*%
G04 #@! TD*
G04 #@! TA.AperFunction,ComponentPad*
%ADD12O,1.700000X1.700000*%
G04 #@! TD*
G04 #@! TA.AperFunction,ComponentPad*
%ADD13R,1.700000X1.700000*%
G04 #@! TD*
G04 #@! TA.AperFunction,SMDPad,CuDef*
%ADD14R,1.500000X2.000000*%
G04 #@! TD*
G04 #@! TA.AperFunction,SMDPad,CuDef*
%ADD15R,3.800000X2.000000*%
G04 #@! TD*
G04 #@! TA.AperFunction,ComponentPad*
%ADD16O,2.000000X1.700000*%
G04 #@! TD*
G04 #@! TA.AperFunction,SMDPad,CuDef*
%ADD17R,3.300000X2.500000*%
G04 #@! TD*
G04 #@! TA.AperFunction,ViaPad*
%ADD18C,0.600000*%
G04 #@! TD*
G04 #@! TA.AperFunction,Conductor*
%ADD19C,1.000000*%
G04 #@! TD*
G04 #@! TA.AperFunction,Conductor*
%ADD20C,0.500000*%
G04 #@! TD*
G04 #@! TA.AperFunction,Conductor*
%ADD21C,0.250000*%
G04 #@! TD*
G04 APERTURE END LIST*
G04 #@! TA.AperFunction,SMDPad,CuDef*
G36*
G01*
X73044000Y-40074001D02*
X73044000Y-39173999D01*
G75*
G02*
X73293999Y-38924000I249999J0D01*
G01*
X73819001Y-38924000D01*
G75*
G02*
X74069000Y-39173999I0J-249999D01*
G01*
X74069000Y-40074001D01*
G75*
G02*
X73819001Y-40324000I-249999J0D01*
G01*
X73293999Y-40324000D01*
G75*
G02*
X73044000Y-40074001I0J249999D01*
G01*
G37*
G04 #@! TD.AperFunction*
G04 #@! TA.AperFunction,SMDPad,CuDef*
G36*
G01*
X71219000Y-40074001D02*
X71219000Y-39173999D01*
G75*
G02*
X71468999Y-38924000I249999J0D01*
G01*
X71994001Y-38924000D01*
G75*
G02*
X72244000Y-39173999I0J-249999D01*
G01*
X72244000Y-40074001D01*
G75*
G02*
X71994001Y-40324000I-249999J0D01*
G01*
X71468999Y-40324000D01*
G75*
G02*
X71219000Y-40074001I0J249999D01*
G01*
G37*
G04 #@! TD.AperFunction*
D10*
X18288000Y-37592000D03*
D11*
X27438000Y-40992000D03*
X27438000Y-39292000D03*
X27438000Y-37592000D03*
X27438000Y-35892000D03*
X27438000Y-34192000D03*
D12*
X55372000Y-32258000D03*
X52832000Y-32258000D03*
X50292000Y-32258000D03*
X47752000Y-32258000D03*
X45212000Y-32258000D03*
D13*
X42672000Y-32258000D03*
G04 #@! TA.AperFunction,SMDPad,CuDef*
G36*
G01*
X49079999Y-44088000D02*
X49980001Y-44088000D01*
G75*
G02*
X50230000Y-44337999I0J-249999D01*
G01*
X50230000Y-44863001D01*
G75*
G02*
X49980001Y-45113000I-249999J0D01*
G01*
X49079999Y-45113000D01*
G75*
G02*
X48830000Y-44863001I0J249999D01*
G01*
X48830000Y-44337999D01*
G75*
G02*
X49079999Y-44088000I249999J0D01*
G01*
G37*
G04 #@! TD.AperFunction*
G04 #@! TA.AperFunction,SMDPad,CuDef*
G36*
G01*
X49079999Y-42263000D02*
X49980001Y-42263000D01*
G75*
G02*
X50230000Y-42512999I0J-249999D01*
G01*
X50230000Y-43038001D01*
G75*
G02*
X49980001Y-43288000I-249999J0D01*
G01*
X49079999Y-43288000D01*
G75*
G02*
X48830000Y-43038001I0J249999D01*
G01*
X48830000Y-42512999D01*
G75*
G02*
X49079999Y-42263000I249999J0D01*
G01*
G37*
G04 #@! TD.AperFunction*
G04 #@! TA.AperFunction,SMDPad,CuDef*
G36*
G01*
X74364001Y-36430000D02*
X73463999Y-36430000D01*
G75*
G02*
X73214000Y-36180001I0J249999D01*
G01*
X73214000Y-35654999D01*
G75*
G02*
X73463999Y-35405000I249999J0D01*
G01*
X74364001Y-35405000D01*
G75*
G02*
X74614000Y-35654999I0J-249999D01*
G01*
X74614000Y-36180001D01*
G75*
G02*
X74364001Y-36430000I-249999J0D01*
G01*
G37*
G04 #@! TD.AperFunction*
G04 #@! TA.AperFunction,SMDPad,CuDef*
G36*
G01*
X74364001Y-38255000D02*
X73463999Y-38255000D01*
G75*
G02*
X73214000Y-38005001I0J249999D01*
G01*
X73214000Y-37479999D01*
G75*
G02*
X73463999Y-37230000I249999J0D01*
G01*
X74364001Y-37230000D01*
G75*
G02*
X74614000Y-37479999I0J-249999D01*
G01*
X74614000Y-38005001D01*
G75*
G02*
X74364001Y-38255000I-249999J0D01*
G01*
G37*
G04 #@! TD.AperFunction*
G04 #@! TA.AperFunction,SMDPad,CuDef*
G36*
G01*
X72536000Y-33216001D02*
X72536000Y-32315999D01*
G75*
G02*
X72785999Y-32066000I249999J0D01*
G01*
X73311001Y-32066000D01*
G75*
G02*
X73561000Y-32315999I0J-249999D01*
G01*
X73561000Y-33216001D01*
G75*
G02*
X73311001Y-33466000I-249999J0D01*
G01*
X72785999Y-33466000D01*
G75*
G02*
X72536000Y-33216001I0J249999D01*
G01*
G37*
G04 #@! TD.AperFunction*
G04 #@! TA.AperFunction,SMDPad,CuDef*
G36*
G01*
X70711000Y-33216001D02*
X70711000Y-32315999D01*
G75*
G02*
X70960999Y-32066000I249999J0D01*
G01*
X71486001Y-32066000D01*
G75*
G02*
X71736000Y-32315999I0J-249999D01*
G01*
X71736000Y-33216001D01*
G75*
G02*
X71486001Y-33466000I-249999J0D01*
G01*
X70960999Y-33466000D01*
G75*
G02*
X70711000Y-33216001I0J249999D01*
G01*
G37*
G04 #@! TD.AperFunction*
D14*
X41642000Y-38950500D03*
X46242000Y-38950500D03*
X43942000Y-38950500D03*
D15*
X43942000Y-45250500D03*
G04 #@! TA.AperFunction,SMDPad,CuDef*
G36*
G01*
X37584000Y-45118000D02*
X37584000Y-46068000D01*
G75*
G02*
X37334000Y-46318000I-250000J0D01*
G01*
X36834000Y-46318000D01*
G75*
G02*
X36584000Y-46068000I0J250000D01*
G01*
X36584000Y-45118000D01*
G75*
G02*
X36834000Y-44868000I250000J0D01*
G01*
X37334000Y-44868000D01*
G75*
G02*
X37584000Y-45118000I0J-250000D01*
G01*
G37*
G04 #@! TD.AperFunction*
G04 #@! TA.AperFunction,SMDPad,CuDef*
G36*
G01*
X39484000Y-45118000D02*
X39484000Y-46068000D01*
G75*
G02*
X39234000Y-46318000I-250000J0D01*
G01*
X38734000Y-46318000D01*
G75*
G02*
X38484000Y-46068000I0J250000D01*
G01*
X38484000Y-45118000D01*
G75*
G02*
X38734000Y-44868000I250000J0D01*
G01*
X39234000Y-44868000D01*
G75*
G02*
X39484000Y-45118000I0J-250000D01*
G01*
G37*
G04 #@! TD.AperFunction*
D12*
X69126100Y-26733500D03*
X69126100Y-29273500D03*
X66586100Y-26733500D03*
X66586100Y-29273500D03*
X64046100Y-26733500D03*
X64046100Y-29273500D03*
X61506100Y-26733500D03*
X61506100Y-29273500D03*
X58966100Y-26733500D03*
X58966100Y-29273500D03*
X56426100Y-26733500D03*
X56426100Y-29273500D03*
X53886100Y-26733500D03*
X53886100Y-29273500D03*
X51346100Y-26733500D03*
X51346100Y-29273500D03*
X48806100Y-26733500D03*
X48806100Y-29273500D03*
X46266100Y-26733500D03*
X46266100Y-29273500D03*
X43726100Y-26733500D03*
X43726100Y-29273500D03*
X41186100Y-26733500D03*
X41186100Y-29273500D03*
X38646100Y-26733500D03*
X38646100Y-29273500D03*
X36106100Y-26733500D03*
X36106100Y-29273500D03*
X33566100Y-26733500D03*
X33566100Y-29273500D03*
X31026100Y-26733500D03*
X31026100Y-29273500D03*
X28486100Y-26733500D03*
X28486100Y-29273500D03*
X25946100Y-26733500D03*
X25946100Y-29273500D03*
X23406100Y-26733500D03*
X23406100Y-29273500D03*
X20866100Y-26733500D03*
D13*
X20866100Y-29273500D03*
D16*
X72390000Y-41950000D03*
G04 #@! TA.AperFunction,ComponentPad*
G36*
G01*
X73140000Y-45300000D02*
X71640000Y-45300000D01*
G75*
G02*
X71390000Y-45050000I0J250000D01*
G01*
X71390000Y-43850000D01*
G75*
G02*
X71640000Y-43600000I250000J0D01*
G01*
X73140000Y-43600000D01*
G75*
G02*
X73390000Y-43850000I0J-250000D01*
G01*
X73390000Y-45050000D01*
G75*
G02*
X73140000Y-45300000I-250000J0D01*
G01*
G37*
G04 #@! TD.AperFunction*
D17*
X34036000Y-40259000D03*
X34036000Y-33459000D03*
G04 #@! TA.AperFunction,SMDPad,CuDef*
G36*
G01*
X26424000Y-46449000D02*
X26424000Y-45499000D01*
G75*
G02*
X26674000Y-45249000I250000J0D01*
G01*
X27174000Y-45249000D01*
G75*
G02*
X27424000Y-45499000I0J-250000D01*
G01*
X27424000Y-46449000D01*
G75*
G02*
X27174000Y-46699000I-250000J0D01*
G01*
X26674000Y-46699000D01*
G75*
G02*
X26424000Y-46449000I0J250000D01*
G01*
G37*
G04 #@! TD.AperFunction*
G04 #@! TA.AperFunction,SMDPad,CuDef*
G36*
G01*
X24524000Y-46449000D02*
X24524000Y-45499000D01*
G75*
G02*
X24774000Y-45249000I250000J0D01*
G01*
X25274000Y-45249000D01*
G75*
G02*
X25524000Y-45499000I0J-250000D01*
G01*
X25524000Y-46449000D01*
G75*
G02*
X25274000Y-46699000I-250000J0D01*
G01*
X24774000Y-46699000D01*
G75*
G02*
X24524000Y-46449000I0J250000D01*
G01*
G37*
G04 #@! TD.AperFunction*
G04 #@! TA.AperFunction,SMDPad,CuDef*
G36*
G01*
X26286000Y-49055000D02*
X26286000Y-50005000D01*
G75*
G02*
X26036000Y-50255000I-250000J0D01*
G01*
X25536000Y-50255000D01*
G75*
G02*
X25286000Y-50005000I0J250000D01*
G01*
X25286000Y-49055000D01*
G75*
G02*
X25536000Y-48805000I250000J0D01*
G01*
X26036000Y-48805000D01*
G75*
G02*
X26286000Y-49055000I0J-250000D01*
G01*
G37*
G04 #@! TD.AperFunction*
G04 #@! TA.AperFunction,SMDPad,CuDef*
G36*
G01*
X28186000Y-49055000D02*
X28186000Y-50005000D01*
G75*
G02*
X27936000Y-50255000I-250000J0D01*
G01*
X27436000Y-50255000D01*
G75*
G02*
X27186000Y-50005000I0J250000D01*
G01*
X27186000Y-49055000D01*
G75*
G02*
X27436000Y-48805000I250000J0D01*
G01*
X27936000Y-48805000D01*
G75*
G02*
X28186000Y-49055000I0J-250000D01*
G01*
G37*
G04 #@! TD.AperFunction*
D18*
X33274000Y-42173000D03*
X39624000Y-38100000D03*
X29862000Y-49530000D03*
X29464000Y-44196000D03*
X28382000Y-32258000D03*
X27438000Y-39292000D03*
X19558000Y-43658000D03*
X48006000Y-41402000D03*
X58674000Y-41910000D03*
X58166000Y-34544000D03*
X74168000Y-34290000D03*
X39370000Y-49784000D03*
X39370000Y-39878000D03*
X46736000Y-49276002D03*
X47244000Y-50292000D03*
X46881233Y-33688323D03*
X46990002Y-34680990D03*
X48006006Y-35306000D03*
X74422000Y-32258000D03*
X30480000Y-32258000D03*
X75438000Y-41402000D03*
X56896000Y-35560000D03*
X48768000Y-40386000D03*
D19*
X18288000Y-37592000D02*
X27438000Y-37592000D01*
X33303000Y-40992000D02*
X34036000Y-40259000D01*
X27438000Y-40992000D02*
X33303000Y-40992000D01*
X34036000Y-40259000D02*
X34036000Y-41910000D01*
X33773000Y-42173000D02*
X33274000Y-42173000D01*
X34036000Y-41910000D02*
X33773000Y-42173000D01*
D20*
X21688000Y-40992000D02*
X18288000Y-37592000D01*
X27438000Y-40992000D02*
X21688000Y-40992000D01*
X35344500Y-38950500D02*
X34036000Y-40259000D01*
X39712500Y-38188500D02*
X39624000Y-38100000D01*
X39712500Y-38950500D02*
X39712500Y-38188500D01*
X41642000Y-38950500D02*
X39712500Y-38950500D01*
X39712500Y-38950500D02*
X35344500Y-38950500D01*
X73840010Y-45339956D02*
X73205966Y-45974000D01*
X73840010Y-43400010D02*
X73840010Y-45339956D01*
X72390000Y-41950000D02*
X73840010Y-43400010D01*
X73205966Y-45974000D02*
X64516000Y-45974000D01*
X64516000Y-45974000D02*
X57404000Y-53086000D01*
X33418000Y-53086000D02*
X29862000Y-49530000D01*
X57404000Y-53086000D02*
X33418000Y-53086000D01*
X26924000Y-41506000D02*
X27438000Y-40992000D01*
X26924000Y-45974000D02*
X26924000Y-41506000D01*
D21*
X25786000Y-47112000D02*
X26924000Y-45974000D01*
X25786000Y-49530000D02*
X25786000Y-47112000D01*
D20*
X36567000Y-45466000D02*
X33274000Y-42173000D01*
X37084000Y-45466000D02*
X36567000Y-45466000D01*
X72390000Y-44450000D02*
X64516000Y-44450000D01*
X64516000Y-44450000D02*
X56642000Y-52324000D01*
X56642000Y-52324000D02*
X33782000Y-52324000D01*
X33782000Y-48514000D02*
X29464000Y-44196000D01*
X33782000Y-52324000D02*
X33782000Y-48514000D01*
X28382000Y-33248000D02*
X28382000Y-32258000D01*
X27438000Y-34192000D02*
X28382000Y-33248000D01*
D21*
X29464000Y-47752000D02*
X29464000Y-44196000D01*
X27686000Y-49530000D02*
X29464000Y-47752000D01*
D20*
X40332814Y-37084000D02*
X32446000Y-37084000D01*
X32446000Y-37084000D02*
X30238000Y-39292000D01*
X45942511Y-37151011D02*
X40399824Y-37151010D01*
X46242000Y-37450500D02*
X45942511Y-37151011D01*
X40399824Y-37151010D02*
X40332814Y-37084000D01*
X30238000Y-39292000D02*
X27438000Y-39292000D01*
X46242000Y-38950500D02*
X46242000Y-37450500D01*
D21*
X46242000Y-39638000D02*
X48006000Y-41402000D01*
X46242000Y-38950500D02*
X46242000Y-39638000D01*
X69445500Y-41910000D02*
X71731500Y-39624000D01*
X58674000Y-41910000D02*
X69445500Y-41910000D01*
D20*
X22322000Y-43658000D02*
X19558000Y-43658000D01*
X24638000Y-45974000D02*
X22322000Y-43658000D01*
X24892000Y-45974000D02*
X24638000Y-45974000D01*
D21*
X69445500Y-34544000D02*
X71223500Y-32766000D01*
X58166000Y-34544000D02*
X69445500Y-34544000D01*
X73914000Y-34544000D02*
X74168000Y-34290000D01*
X73914000Y-35917500D02*
X73914000Y-34544000D01*
D20*
X40127000Y-44265500D02*
X40127000Y-45593000D01*
X43942000Y-40450500D02*
X40127000Y-44265500D01*
X43942000Y-38950500D02*
X43942000Y-40450500D01*
X40127000Y-49027000D02*
X39370000Y-49784000D01*
X40127000Y-45593000D02*
X40127000Y-49027000D01*
X44592000Y-44600500D02*
X43942000Y-45250500D01*
X49530000Y-44600500D02*
X44592000Y-44600500D01*
X40127000Y-40635000D02*
X39370000Y-39878000D01*
X40127000Y-44265500D02*
X40127000Y-40635000D01*
D21*
X38984000Y-45593000D02*
X40127000Y-45593000D01*
X40469500Y-45250500D02*
X40127000Y-45593000D01*
X43942000Y-45250500D02*
X40469500Y-45250500D01*
D20*
X50292000Y-32258000D02*
X51141999Y-33107999D01*
X51141999Y-33107999D02*
X51141999Y-44870003D01*
X51141999Y-44870003D02*
X46736000Y-49276002D01*
X52832000Y-44704000D02*
X47244000Y-50292000D01*
X52832000Y-32258000D02*
X52832000Y-44704000D01*
X45212000Y-32258000D02*
X45450910Y-32258000D01*
X45450910Y-32258000D02*
X46881233Y-33688323D01*
D21*
X46091012Y-33782000D02*
X46990002Y-34680990D01*
X32201101Y-27908501D02*
X33940103Y-27908501D01*
X33940103Y-27908501D02*
X34741101Y-28709499D01*
X38875598Y-33782000D02*
X46091012Y-33782000D01*
X34741101Y-28709499D02*
X34741101Y-29647503D01*
X31026100Y-26733500D02*
X32201101Y-27908501D01*
X34741101Y-29647503D02*
X38875598Y-33782000D01*
X38606002Y-34544000D02*
X45720000Y-34544000D01*
X34510503Y-30448501D02*
X38606002Y-34544000D01*
X45720000Y-34544000D02*
X46482000Y-35306000D01*
X30448501Y-30448501D02*
X34510503Y-30448501D01*
X46482000Y-35306000D02*
X48006006Y-35306000D01*
X29661101Y-29661101D02*
X30448501Y-30448501D01*
X29661101Y-27908501D02*
X29661101Y-29661101D01*
X28486100Y-26733500D02*
X29661101Y-27908501D01*
X73914000Y-32766000D02*
X74422000Y-32258000D01*
X73048500Y-32766000D02*
X73914000Y-32766000D01*
D19*
X31603000Y-35892000D02*
X34036000Y-33459000D01*
X27438000Y-35892000D02*
X31603000Y-35892000D01*
X34036000Y-33459000D02*
X31681000Y-33459000D01*
X31681000Y-33459000D02*
X30480000Y-32258000D01*
D21*
X73660000Y-39624000D02*
X75438000Y-41402000D01*
X73556500Y-39624000D02*
X73660000Y-39624000D01*
X59078500Y-37742500D02*
X73914000Y-37742500D01*
X56896000Y-35560000D02*
X59078500Y-37742500D01*
D20*
X49530000Y-41148000D02*
X48768000Y-40386000D01*
X49530000Y-42775500D02*
X49530000Y-41148000D01*
M02*
