G04 #@! TF.GenerationSoftware,KiCad,Pcbnew,(5.1.9)-1*
G04 #@! TF.CreationDate,2021-09-02T14:22:40+03:00*
G04 #@! TF.ProjectId,ZigbeeShild01,5a696762-6565-4536-9869-6c6430312e6b,rev?*
G04 #@! TF.SameCoordinates,Original*
G04 #@! TF.FileFunction,Copper,L1,Top*
G04 #@! TF.FilePolarity,Positive*
%FSLAX46Y46*%
G04 Gerber Fmt 4.6, Leading zero omitted, Abs format (unit mm)*
G04 Created by KiCad (PCBNEW (5.1.9)-1) date 2021-09-02 14:22:40*
%MOMM*%
%LPD*%
G01*
G04 APERTURE LIST*
G04 #@! TA.AperFunction,ComponentPad*
%ADD10O,1.700000X1.700000*%
G04 #@! TD*
G04 #@! TA.AperFunction,ComponentPad*
%ADD11R,1.700000X1.700000*%
G04 #@! TD*
G04 #@! TA.AperFunction,SMDPad,CuDef*
%ADD12R,0.900000X1.700000*%
G04 #@! TD*
G04 #@! TA.AperFunction,SMDPad,CuDef*
%ADD13R,0.800000X1.500000*%
G04 #@! TD*
G04 #@! TA.AperFunction,SMDPad,CuDef*
%ADD14R,5.300000X2.800000*%
G04 #@! TD*
G04 #@! TA.AperFunction,ComponentPad*
%ADD15O,2.000000X1.700000*%
G04 #@! TD*
G04 #@! TA.AperFunction,ViaPad*
%ADD16C,0.600000*%
G04 #@! TD*
G04 #@! TA.AperFunction,Conductor*
%ADD17C,1.000000*%
G04 #@! TD*
G04 #@! TA.AperFunction,Conductor*
%ADD18C,0.500000*%
G04 #@! TD*
G04 #@! TA.AperFunction,Conductor*
%ADD19C,0.250000*%
G04 #@! TD*
G04 #@! TA.AperFunction,Conductor*
%ADD20C,0.254000*%
G04 #@! TD*
G04 #@! TA.AperFunction,Conductor*
%ADD21C,0.100000*%
G04 #@! TD*
G04 APERTURE END LIST*
G04 #@! TA.AperFunction,SMDPad,CuDef*
G36*
G01*
X75689750Y-39491500D02*
X76202250Y-39491500D01*
G75*
G02*
X76421000Y-39710250I0J-218750D01*
G01*
X76421000Y-40147750D01*
G75*
G02*
X76202250Y-40366500I-218750J0D01*
G01*
X75689750Y-40366500D01*
G75*
G02*
X75471000Y-40147750I0J218750D01*
G01*
X75471000Y-39710250D01*
G75*
G02*
X75689750Y-39491500I218750J0D01*
G01*
G37*
G04 #@! TD.AperFunction*
G04 #@! TA.AperFunction,SMDPad,CuDef*
G36*
G01*
X75689750Y-37916500D02*
X76202250Y-37916500D01*
G75*
G02*
X76421000Y-38135250I0J-218750D01*
G01*
X76421000Y-38572750D01*
G75*
G02*
X76202250Y-38791500I-218750J0D01*
G01*
X75689750Y-38791500D01*
G75*
G02*
X75471000Y-38572750I0J218750D01*
G01*
X75471000Y-38135250D01*
G75*
G02*
X75689750Y-37916500I218750J0D01*
G01*
G37*
G04 #@! TD.AperFunction*
D10*
X55372000Y-32258000D03*
X52832000Y-32258000D03*
X50292000Y-32258000D03*
X47752000Y-32258000D03*
X45212000Y-32258000D03*
D11*
X42672000Y-32258000D03*
D12*
X62992000Y-33782000D03*
X59592000Y-33782000D03*
X68834000Y-33782000D03*
X65434000Y-33782000D03*
G04 #@! TA.AperFunction,SMDPad,CuDef*
G36*
G01*
X75689750Y-36392500D02*
X76202250Y-36392500D01*
G75*
G02*
X76421000Y-36611250I0J-218750D01*
G01*
X76421000Y-37048750D01*
G75*
G02*
X76202250Y-37267500I-218750J0D01*
G01*
X75689750Y-37267500D01*
G75*
G02*
X75471000Y-37048750I0J218750D01*
G01*
X75471000Y-36611250D01*
G75*
G02*
X75689750Y-36392500I218750J0D01*
G01*
G37*
G04 #@! TD.AperFunction*
G04 #@! TA.AperFunction,SMDPad,CuDef*
G36*
G01*
X75689750Y-34817500D02*
X76202250Y-34817500D01*
G75*
G02*
X76421000Y-35036250I0J-218750D01*
G01*
X76421000Y-35473750D01*
G75*
G02*
X76202250Y-35692500I-218750J0D01*
G01*
X75689750Y-35692500D01*
G75*
G02*
X75471000Y-35473750I0J218750D01*
G01*
X75471000Y-35036250D01*
G75*
G02*
X75689750Y-34817500I218750J0D01*
G01*
G37*
G04 #@! TD.AperFunction*
G04 #@! TA.AperFunction,SMDPad,CuDef*
G36*
G01*
X76202250Y-32390500D02*
X75689750Y-32390500D01*
G75*
G02*
X75471000Y-32171750I0J218750D01*
G01*
X75471000Y-31734250D01*
G75*
G02*
X75689750Y-31515500I218750J0D01*
G01*
X76202250Y-31515500D01*
G75*
G02*
X76421000Y-31734250I0J-218750D01*
G01*
X76421000Y-32171750D01*
G75*
G02*
X76202250Y-32390500I-218750J0D01*
G01*
G37*
G04 #@! TD.AperFunction*
G04 #@! TA.AperFunction,SMDPad,CuDef*
G36*
G01*
X76202250Y-33965500D02*
X75689750Y-33965500D01*
G75*
G02*
X75471000Y-33746750I0J218750D01*
G01*
X75471000Y-33309250D01*
G75*
G02*
X75689750Y-33090500I218750J0D01*
G01*
X76202250Y-33090500D01*
G75*
G02*
X76421000Y-33309250I0J-218750D01*
G01*
X76421000Y-33746750D01*
G75*
G02*
X76202250Y-33965500I-218750J0D01*
G01*
G37*
G04 #@! TD.AperFunction*
D13*
X51718500Y-53361000D03*
X44098500Y-53361000D03*
X44098500Y-37461000D03*
X42828500Y-53361000D03*
X46638500Y-53361000D03*
X45368500Y-53361000D03*
X45368500Y-37461000D03*
X47908500Y-37461000D03*
X64818500Y-53361000D03*
X51718500Y-37461000D03*
X58068500Y-53361000D03*
X58068500Y-37461000D03*
X52988500Y-37461000D03*
X50448500Y-37461000D03*
X56798500Y-53361000D03*
X49178500Y-37461000D03*
X54258500Y-37461000D03*
X63548500Y-53361000D03*
X41558500Y-53361000D03*
X54258500Y-53361000D03*
X41558500Y-37461000D03*
X46638500Y-37461000D03*
X42828500Y-37461000D03*
X55528500Y-53361000D03*
X49178500Y-53361000D03*
X56798500Y-37461000D03*
X47908500Y-53361000D03*
X50448500Y-53361000D03*
X55528500Y-37461000D03*
X52988500Y-53361000D03*
G04 #@! TA.AperFunction,SMDPad,CuDef*
G36*
G01*
X36110000Y-49592000D02*
X35010000Y-49592000D01*
G75*
G02*
X34760000Y-49342000I0J250000D01*
G01*
X34760000Y-46842000D01*
G75*
G02*
X35010000Y-46592000I250000J0D01*
G01*
X36110000Y-46592000D01*
G75*
G02*
X36360000Y-46842000I0J-250000D01*
G01*
X36360000Y-49342000D01*
G75*
G02*
X36110000Y-49592000I-250000J0D01*
G01*
G37*
G04 #@! TD.AperFunction*
G04 #@! TA.AperFunction,SMDPad,CuDef*
G36*
G01*
X36110000Y-53992000D02*
X35010000Y-53992000D01*
G75*
G02*
X34760000Y-53742000I0J250000D01*
G01*
X34760000Y-51242000D01*
G75*
G02*
X35010000Y-50992000I250000J0D01*
G01*
X36110000Y-50992000D01*
G75*
G02*
X36360000Y-51242000I0J-250000D01*
G01*
X36360000Y-53742000D01*
G75*
G02*
X36110000Y-53992000I-250000J0D01*
G01*
G37*
G04 #@! TD.AperFunction*
D10*
X69126100Y-26733500D03*
X69126100Y-29273500D03*
X66586100Y-26733500D03*
X66586100Y-29273500D03*
X64046100Y-26733500D03*
X64046100Y-29273500D03*
X61506100Y-26733500D03*
X61506100Y-29273500D03*
X58966100Y-26733500D03*
X58966100Y-29273500D03*
X56426100Y-26733500D03*
X56426100Y-29273500D03*
X53886100Y-26733500D03*
X53886100Y-29273500D03*
X51346100Y-26733500D03*
X51346100Y-29273500D03*
X48806100Y-26733500D03*
X48806100Y-29273500D03*
X46266100Y-26733500D03*
X46266100Y-29273500D03*
X43726100Y-26733500D03*
X43726100Y-29273500D03*
X41186100Y-26733500D03*
X41186100Y-29273500D03*
X38646100Y-26733500D03*
X38646100Y-29273500D03*
X36106100Y-26733500D03*
X36106100Y-29273500D03*
X33566100Y-26733500D03*
X33566100Y-29273500D03*
X31026100Y-26733500D03*
X31026100Y-29273500D03*
X28486100Y-26733500D03*
X28486100Y-29273500D03*
X25946100Y-26733500D03*
X25946100Y-29273500D03*
X23406100Y-26733500D03*
X23406100Y-29273500D03*
X20866100Y-26733500D03*
D11*
X20866100Y-29273500D03*
D14*
X19558000Y-33558000D03*
X19558000Y-43658000D03*
D15*
X72390000Y-41950000D03*
G04 #@! TA.AperFunction,ComponentPad*
G36*
G01*
X73140000Y-45300000D02*
X71640000Y-45300000D01*
G75*
G02*
X71390000Y-45050000I0J250000D01*
G01*
X71390000Y-43850000D01*
G75*
G02*
X71640000Y-43600000I250000J0D01*
G01*
X73140000Y-43600000D01*
G75*
G02*
X73390000Y-43850000I0J-250000D01*
G01*
X73390000Y-45050000D01*
G75*
G02*
X73140000Y-45300000I-250000J0D01*
G01*
G37*
G04 #@! TD.AperFunction*
G04 #@! TA.AperFunction,SMDPad,CuDef*
G36*
G01*
X27662000Y-50530000D02*
X27662000Y-48530000D01*
G75*
G02*
X27912000Y-48280000I250000J0D01*
G01*
X31812000Y-48280000D01*
G75*
G02*
X32062000Y-48530000I0J-250000D01*
G01*
X32062000Y-50530000D01*
G75*
G02*
X31812000Y-50780000I-250000J0D01*
G01*
X27912000Y-50780000D01*
G75*
G02*
X27662000Y-50530000I0J250000D01*
G01*
G37*
G04 #@! TD.AperFunction*
G04 #@! TA.AperFunction,SMDPad,CuDef*
G36*
G01*
X20262000Y-50530000D02*
X20262000Y-48530000D01*
G75*
G02*
X20512000Y-48280000I250000J0D01*
G01*
X24412000Y-48280000D01*
G75*
G02*
X24662000Y-48530000I0J-250000D01*
G01*
X24662000Y-50530000D01*
G75*
G02*
X24412000Y-50780000I-250000J0D01*
G01*
X20512000Y-50780000D01*
G75*
G02*
X20262000Y-50530000I0J250000D01*
G01*
G37*
G04 #@! TD.AperFunction*
G04 #@! TA.AperFunction,SMDPad,CuDef*
G36*
G01*
X32274000Y-39973000D02*
X34274000Y-39973000D01*
G75*
G02*
X34524000Y-40223000I0J-250000D01*
G01*
X34524000Y-44123000D01*
G75*
G02*
X34274000Y-44373000I-250000J0D01*
G01*
X32274000Y-44373000D01*
G75*
G02*
X32024000Y-44123000I0J250000D01*
G01*
X32024000Y-40223000D01*
G75*
G02*
X32274000Y-39973000I250000J0D01*
G01*
G37*
G04 #@! TD.AperFunction*
G04 #@! TA.AperFunction,SMDPad,CuDef*
G36*
G01*
X32274000Y-31573000D02*
X34274000Y-31573000D01*
G75*
G02*
X34524000Y-31823000I0J-250000D01*
G01*
X34524000Y-35723000D01*
G75*
G02*
X34274000Y-35973000I-250000J0D01*
G01*
X32274000Y-35973000D01*
G75*
G02*
X32024000Y-35723000I0J250000D01*
G01*
X32024000Y-31823000D01*
G75*
G02*
X32274000Y-31573000I250000J0D01*
G01*
G37*
G04 #@! TD.AperFunction*
D16*
X33274000Y-42173000D03*
X39624000Y-38100000D03*
X29862000Y-49530000D03*
X29464000Y-44196000D03*
X28382000Y-32258000D03*
X27438000Y-39292000D03*
X19558000Y-43658000D03*
X48006000Y-41402000D03*
X58674000Y-41910000D03*
X58166000Y-34544000D03*
X74168000Y-34290000D03*
X39370000Y-49784000D03*
X39370000Y-39878000D03*
X46736000Y-49276002D03*
X47244000Y-50292000D03*
X46881233Y-33688323D03*
X46990002Y-34680990D03*
X48006006Y-35306000D03*
X74422000Y-32258000D03*
X30480000Y-32258000D03*
X75438000Y-41402000D03*
X56896000Y-35560000D03*
X48768000Y-40386000D03*
D17*
X29862000Y-45585000D02*
X33274000Y-42173000D01*
X29862000Y-49530000D02*
X29862000Y-45585000D01*
X34122000Y-49530000D02*
X35560000Y-48092000D01*
X29862000Y-49530000D02*
X34122000Y-49530000D01*
D18*
X39624000Y-38100000D02*
X39624000Y-36576000D01*
X39624000Y-36576000D02*
X40386000Y-35814000D01*
X40386000Y-35814000D02*
X41148000Y-35814000D01*
X41558500Y-36224500D02*
X41558500Y-37461000D01*
X41148000Y-35814000D02*
X41558500Y-36224500D01*
D19*
X62992000Y-33782000D02*
X65434000Y-33782000D01*
X61468000Y-32258000D02*
X55372000Y-32258000D01*
X62992000Y-33782000D02*
X61468000Y-32258000D01*
X65434000Y-32965600D02*
X69126100Y-29273500D01*
X65434000Y-33782000D02*
X65434000Y-32965600D01*
X76746010Y-39154010D02*
X75946000Y-38354000D01*
X76746010Y-41018992D02*
X76746010Y-39154010D01*
X75738001Y-42027001D02*
X76746010Y-41018992D01*
X72467001Y-42027001D02*
X75738001Y-42027001D01*
X72390000Y-41950000D02*
X72467001Y-42027001D01*
X76746010Y-36055010D02*
X75946000Y-35255000D01*
X76746010Y-38028990D02*
X76746010Y-36055010D01*
X76421000Y-38354000D02*
X76746010Y-38028990D01*
X75946000Y-38354000D02*
X76421000Y-38354000D01*
X75946000Y-35255000D02*
X75946000Y-33528000D01*
D17*
X72390000Y-32537400D02*
X69126100Y-29273500D01*
X72390000Y-41950000D02*
X72390000Y-32537400D01*
D19*
X63548500Y-50791500D02*
X72390000Y-41950000D01*
X63548500Y-53361000D02*
X63548500Y-50791500D01*
D18*
X32945000Y-34102000D02*
X33274000Y-33773000D01*
X30480000Y-34102000D02*
X32945000Y-34102000D01*
X30480000Y-43180000D02*
X30480000Y-34102000D01*
X29464000Y-44196000D02*
X30480000Y-43180000D01*
X31430009Y-33151991D02*
X30480000Y-34102000D01*
X31430009Y-31864493D02*
X31430009Y-33151991D01*
X30873507Y-31307991D02*
X31430009Y-31864493D01*
X29332009Y-31307991D02*
X30873507Y-31307991D01*
X28382000Y-32258000D02*
X29332009Y-31307991D01*
D17*
X19558000Y-43658000D02*
X19558000Y-43180000D01*
X23446000Y-39292000D02*
X27438000Y-39292000D01*
X19558000Y-43180000D02*
X23446000Y-39292000D01*
X22462000Y-46562000D02*
X19558000Y-43658000D01*
X22462000Y-49530000D02*
X22462000Y-46562000D01*
D18*
X20866100Y-26733500D02*
X23406100Y-26733500D01*
X19566099Y-29391903D02*
X19566099Y-28033501D01*
X17608001Y-31350001D02*
X19566099Y-29391903D01*
X16905997Y-31350001D02*
X17608001Y-31350001D01*
X16002000Y-32253998D02*
X16905997Y-31350001D01*
X16002000Y-40102000D02*
X16002000Y-32253998D01*
X19566099Y-28033501D02*
X20866100Y-26733500D01*
X19558000Y-43658000D02*
X16002000Y-40102000D01*
D19*
X48514000Y-41910000D02*
X58674000Y-41910000D01*
X48006000Y-41402000D02*
X48514000Y-41910000D01*
X56798500Y-37111000D02*
X58166000Y-35743500D01*
X58166000Y-35743500D02*
X58166000Y-34544000D01*
X56798500Y-37461000D02*
X56798500Y-37111000D01*
X74168000Y-35052000D02*
X75946000Y-36830000D01*
X74168000Y-34290000D02*
X74168000Y-35052000D01*
D18*
X38268000Y-49784000D02*
X35560000Y-52492000D01*
X39370000Y-49784000D02*
X38268000Y-49784000D01*
X42828500Y-36211000D02*
X42828500Y-37461000D01*
X41731490Y-35113990D02*
X42828500Y-36211000D01*
X40096047Y-35113990D02*
X41731490Y-35113990D01*
X38873999Y-36336039D02*
X40096047Y-35113990D01*
X38873999Y-39381999D02*
X38873999Y-36336039D01*
X39370000Y-39878000D02*
X38873999Y-39381999D01*
X41731490Y-33198510D02*
X42672000Y-32258000D01*
X41731490Y-35113990D02*
X41731490Y-33198510D01*
X44098500Y-53361000D02*
X44098500Y-51913502D01*
X44098500Y-51913502D02*
X46736000Y-49276002D01*
X47201554Y-32258000D02*
X47752000Y-32258000D01*
X44098500Y-37461000D02*
X44098500Y-35361054D01*
X44098500Y-35361054D02*
X47201554Y-32258000D01*
X47187500Y-50292000D02*
X47244000Y-50292000D01*
X45368500Y-52111000D02*
X47187500Y-50292000D01*
X45368500Y-53361000D02*
X45368500Y-52111000D01*
X45368500Y-37461000D02*
X45368500Y-35201056D01*
X45368500Y-35201056D02*
X46881233Y-33688323D01*
D19*
X47908500Y-36387504D02*
X46990002Y-35469006D01*
X47908500Y-37461000D02*
X47908500Y-36387504D01*
X46990002Y-35469006D02*
X46990002Y-34680990D01*
X49178500Y-37461000D02*
X49178500Y-36478494D01*
X49178500Y-36478494D02*
X48006006Y-35306000D01*
X75641000Y-32258000D02*
X75946000Y-31953000D01*
X74422000Y-32258000D02*
X75641000Y-32258000D01*
D17*
X29180000Y-33558000D02*
X19558000Y-33558000D01*
X30480000Y-32258000D02*
X29180000Y-33558000D01*
D19*
X75438000Y-40437000D02*
X75946000Y-39929000D01*
X75438000Y-41402000D02*
X75438000Y-40437000D01*
X55528500Y-36927500D02*
X56896000Y-35560000D01*
X55528500Y-37461000D02*
X55528500Y-36927500D01*
D18*
X46638500Y-38256500D02*
X46638500Y-37461000D01*
X48768000Y-40386000D02*
X46638500Y-38256500D01*
D19*
X56878502Y-40386000D02*
X48768000Y-40386000D01*
X59592000Y-37672502D02*
X56878502Y-40386000D01*
X59592000Y-33782000D02*
X59592000Y-37672502D01*
X42828500Y-52258500D02*
X42828500Y-53361000D01*
X53964999Y-48651001D02*
X46435999Y-48651001D01*
X68834000Y-33782000D02*
X53964999Y-48651001D01*
X42828500Y-52258500D02*
X46435999Y-48651001D01*
D20*
X74949016Y-24732312D02*
X75380930Y-24862714D01*
X75779285Y-25074524D01*
X76128914Y-25359675D01*
X76416497Y-25707303D01*
X76631086Y-26104177D01*
X76645547Y-26150894D01*
X76506575Y-25942907D01*
X76057093Y-25493425D01*
X75528558Y-25140270D01*
X74941281Y-24897012D01*
X74317832Y-24773000D01*
X73682168Y-24773000D01*
X73058719Y-24897012D01*
X72471442Y-25140270D01*
X71942907Y-25493425D01*
X71493425Y-25942907D01*
X71140270Y-26471442D01*
X70897012Y-27058719D01*
X70773000Y-27682168D01*
X70773000Y-28317832D01*
X70897012Y-28941281D01*
X71140270Y-29528558D01*
X71493425Y-30057093D01*
X71942907Y-30506575D01*
X72471442Y-30859730D01*
X73058719Y-31102988D01*
X73682168Y-31227000D01*
X74317832Y-31227000D01*
X74941281Y-31102988D01*
X75528558Y-30859730D01*
X76057093Y-30506575D01*
X76506575Y-30057093D01*
X76815000Y-29595501D01*
X76815000Y-31136775D01*
X76808115Y-31128385D01*
X76678275Y-31021829D01*
X76530142Y-30942650D01*
X76369408Y-30893892D01*
X76202250Y-30877428D01*
X75689750Y-30877428D01*
X75522592Y-30893892D01*
X75361858Y-30942650D01*
X75213725Y-31021829D01*
X75083885Y-31128385D01*
X74977329Y-31258225D01*
X74898150Y-31406358D01*
X74886729Y-31444007D01*
X74864889Y-31429414D01*
X74694729Y-31358932D01*
X74514089Y-31323000D01*
X74329911Y-31323000D01*
X74149271Y-31358932D01*
X73979111Y-31429414D01*
X73825972Y-31531738D01*
X73695738Y-31661972D01*
X73593414Y-31815111D01*
X73522932Y-31985271D01*
X73487000Y-32165911D01*
X73487000Y-32350089D01*
X73522932Y-32530729D01*
X73593414Y-32700889D01*
X73695738Y-32854028D01*
X73825972Y-32984262D01*
X73979111Y-33086586D01*
X74149271Y-33157068D01*
X74329911Y-33193000D01*
X74514089Y-33193000D01*
X74694729Y-33157068D01*
X74833115Y-33099747D01*
X74836000Y-33242250D01*
X74994750Y-33401000D01*
X75819000Y-33401000D01*
X75819000Y-33381000D01*
X76073000Y-33381000D01*
X76073000Y-33401000D01*
X76093000Y-33401000D01*
X76093000Y-33655000D01*
X76073000Y-33655000D01*
X76073000Y-35128000D01*
X76093000Y-35128000D01*
X76093000Y-35382000D01*
X76073000Y-35382000D01*
X76073000Y-35402000D01*
X75819000Y-35402000D01*
X75819000Y-35382000D01*
X75799000Y-35382000D01*
X75799000Y-35128000D01*
X75819000Y-35128000D01*
X75819000Y-33655000D01*
X74994750Y-33655000D01*
X74918902Y-33730848D01*
X74894262Y-33693972D01*
X74764028Y-33563738D01*
X74610889Y-33461414D01*
X74440729Y-33390932D01*
X74260089Y-33355000D01*
X74075911Y-33355000D01*
X73895271Y-33390932D01*
X73725111Y-33461414D01*
X73571972Y-33563738D01*
X73441738Y-33693972D01*
X73339414Y-33847111D01*
X73268932Y-34017271D01*
X73233000Y-34197911D01*
X73233000Y-34382089D01*
X73268932Y-34562729D01*
X73339414Y-34732889D01*
X73408000Y-34835535D01*
X73408000Y-35014678D01*
X73404324Y-35052000D01*
X73408000Y-35089322D01*
X73408000Y-35089333D01*
X73418997Y-35200986D01*
X73445235Y-35287479D01*
X73462454Y-35344246D01*
X73533026Y-35476276D01*
X73601738Y-35560001D01*
X73628000Y-35592001D01*
X73656998Y-35615799D01*
X74832928Y-36791730D01*
X74832928Y-37048750D01*
X74849392Y-37215908D01*
X74898150Y-37376642D01*
X74974840Y-37520118D01*
X74940463Y-37562006D01*
X74881498Y-37672320D01*
X74845188Y-37792018D01*
X74832928Y-37916500D01*
X74836000Y-38068250D01*
X74994750Y-38227000D01*
X75819000Y-38227000D01*
X75819000Y-38207000D01*
X76073000Y-38207000D01*
X76073000Y-38227000D01*
X76093000Y-38227000D01*
X76093000Y-38481000D01*
X76073000Y-38481000D01*
X76073000Y-38501000D01*
X75819000Y-38501000D01*
X75819000Y-38481000D01*
X74994750Y-38481000D01*
X74836000Y-38639750D01*
X74832928Y-38791500D01*
X74845188Y-38915982D01*
X74881498Y-39035680D01*
X74940463Y-39145994D01*
X74995100Y-39212570D01*
X74977329Y-39234225D01*
X74898150Y-39382358D01*
X74849392Y-39543092D01*
X74832928Y-39710250D01*
X74832928Y-39976289D01*
X74803026Y-40012724D01*
X74732454Y-40144754D01*
X74714608Y-40203588D01*
X74692798Y-40275489D01*
X74688998Y-40288015D01*
X74674324Y-40437000D01*
X74678001Y-40474332D01*
X74678001Y-40856464D01*
X74609414Y-40959111D01*
X74538932Y-41129271D01*
X74503000Y-41309911D01*
X74503000Y-41494089D01*
X74538932Y-41674729D01*
X74609414Y-41844889D01*
X74711738Y-41998028D01*
X74841972Y-42128262D01*
X74995111Y-42230586D01*
X75165271Y-42301068D01*
X75345911Y-42337000D01*
X75530089Y-42337000D01*
X75710729Y-42301068D01*
X75880889Y-42230586D01*
X76034028Y-42128262D01*
X76164262Y-41998028D01*
X76266586Y-41844889D01*
X76337068Y-41674729D01*
X76373000Y-41494089D01*
X76373000Y-41309911D01*
X76337068Y-41129271D01*
X76282156Y-40996702D01*
X76369408Y-40988108D01*
X76530142Y-40939350D01*
X76678275Y-40860171D01*
X76808115Y-40753615D01*
X76815001Y-40745225D01*
X76815001Y-49404500D01*
X76506575Y-48942907D01*
X76057093Y-48493425D01*
X75528558Y-48140270D01*
X74941281Y-47897012D01*
X74317832Y-47773000D01*
X73682168Y-47773000D01*
X73058719Y-47897012D01*
X72471442Y-48140270D01*
X71942907Y-48493425D01*
X71493425Y-48942907D01*
X71140270Y-49471442D01*
X70993000Y-49826983D01*
X70993000Y-45654764D01*
X71012038Y-45677962D01*
X71146614Y-45788405D01*
X71300150Y-45870472D01*
X71466746Y-45921008D01*
X71640000Y-45938072D01*
X73140000Y-45938072D01*
X73313254Y-45921008D01*
X73479850Y-45870472D01*
X73633386Y-45788405D01*
X73767962Y-45677962D01*
X73878405Y-45543386D01*
X73960472Y-45389850D01*
X74011008Y-45223254D01*
X74028072Y-45050000D01*
X74028072Y-43850000D01*
X74011008Y-43676746D01*
X73960472Y-43510150D01*
X73878405Y-43356614D01*
X73767962Y-43222038D01*
X73633386Y-43111595D01*
X73531407Y-43057086D01*
X73531795Y-43056802D01*
X73728664Y-42842046D01*
X73879854Y-42593009D01*
X73979554Y-42319261D01*
X73981476Y-42306890D01*
X73860155Y-42077000D01*
X72517000Y-42077000D01*
X72517000Y-42097000D01*
X72263000Y-42097000D01*
X72263000Y-42077000D01*
X72243000Y-42077000D01*
X72243000Y-41823000D01*
X72263000Y-41823000D01*
X72263000Y-40622768D01*
X72517000Y-40622768D01*
X72517000Y-41823000D01*
X73860155Y-41823000D01*
X73981476Y-41593110D01*
X73979554Y-41580739D01*
X73879854Y-41306991D01*
X73728664Y-41057954D01*
X73531795Y-40843198D01*
X73296812Y-40670975D01*
X73032745Y-40547904D01*
X72749742Y-40478715D01*
X72517000Y-40622768D01*
X72263000Y-40622768D01*
X72030258Y-40478715D01*
X71747255Y-40547904D01*
X71483188Y-40670975D01*
X71248205Y-40843198D01*
X71051336Y-41057954D01*
X70993000Y-41154044D01*
X70993000Y-36068000D01*
X70990560Y-36043224D01*
X70983333Y-36019399D01*
X70971597Y-35997443D01*
X70955803Y-35978197D01*
X70936557Y-35962403D01*
X70914601Y-35950667D01*
X70890776Y-35943440D01*
X70866000Y-35941000D01*
X67749802Y-35941000D01*
X68420730Y-35270072D01*
X69284000Y-35270072D01*
X69408482Y-35257812D01*
X69528180Y-35221502D01*
X69638494Y-35162537D01*
X69735185Y-35083185D01*
X69814537Y-34986494D01*
X69873502Y-34876180D01*
X69909812Y-34756482D01*
X69922072Y-34632000D01*
X69922072Y-32932000D01*
X69909812Y-32807518D01*
X69873502Y-32687820D01*
X69814537Y-32577506D01*
X69735185Y-32480815D01*
X69638494Y-32401463D01*
X69528180Y-32342498D01*
X69408482Y-32306188D01*
X69284000Y-32293928D01*
X68384000Y-32293928D01*
X68259518Y-32306188D01*
X68139820Y-32342498D01*
X68029506Y-32401463D01*
X67932815Y-32480815D01*
X67853463Y-32577506D01*
X67794498Y-32687820D01*
X67758188Y-32807518D01*
X67745928Y-32932000D01*
X67745928Y-33795270D01*
X65600198Y-35941000D01*
X60352000Y-35941000D01*
X60352000Y-35186320D01*
X60396494Y-35162537D01*
X60493185Y-35083185D01*
X60572537Y-34986494D01*
X60631502Y-34876180D01*
X60667812Y-34756482D01*
X60680072Y-34632000D01*
X61903928Y-34632000D01*
X61916188Y-34756482D01*
X61952498Y-34876180D01*
X62011463Y-34986494D01*
X62090815Y-35083185D01*
X62187506Y-35162537D01*
X62297820Y-35221502D01*
X62417518Y-35257812D01*
X62542000Y-35270072D01*
X62706250Y-35267000D01*
X62865000Y-35108250D01*
X62865000Y-33909000D01*
X63119000Y-33909000D01*
X63119000Y-35108250D01*
X63277750Y-35267000D01*
X63442000Y-35270072D01*
X63566482Y-35257812D01*
X63686180Y-35221502D01*
X63796494Y-35162537D01*
X63893185Y-35083185D01*
X63972537Y-34986494D01*
X64031502Y-34876180D01*
X64067812Y-34756482D01*
X64080072Y-34632000D01*
X64345928Y-34632000D01*
X64358188Y-34756482D01*
X64394498Y-34876180D01*
X64453463Y-34986494D01*
X64532815Y-35083185D01*
X64629506Y-35162537D01*
X64739820Y-35221502D01*
X64859518Y-35257812D01*
X64984000Y-35270072D01*
X65148250Y-35267000D01*
X65307000Y-35108250D01*
X65307000Y-33909000D01*
X65561000Y-33909000D01*
X65561000Y-35108250D01*
X65719750Y-35267000D01*
X65884000Y-35270072D01*
X66008482Y-35257812D01*
X66128180Y-35221502D01*
X66238494Y-35162537D01*
X66335185Y-35083185D01*
X66414537Y-34986494D01*
X66473502Y-34876180D01*
X66509812Y-34756482D01*
X66522072Y-34632000D01*
X66519000Y-34067750D01*
X66360250Y-33909000D01*
X65561000Y-33909000D01*
X65307000Y-33909000D01*
X64507750Y-33909000D01*
X64349000Y-34067750D01*
X64345928Y-34632000D01*
X64080072Y-34632000D01*
X64077000Y-34067750D01*
X63918250Y-33909000D01*
X63119000Y-33909000D01*
X62865000Y-33909000D01*
X62065750Y-33909000D01*
X61907000Y-34067750D01*
X61903928Y-34632000D01*
X60680072Y-34632000D01*
X60680072Y-32932000D01*
X61903928Y-32932000D01*
X61907000Y-33496250D01*
X62065750Y-33655000D01*
X62865000Y-33655000D01*
X62865000Y-32455750D01*
X63119000Y-32455750D01*
X63119000Y-33655000D01*
X63918250Y-33655000D01*
X64077000Y-33496250D01*
X64080072Y-32932000D01*
X64345928Y-32932000D01*
X64349000Y-33496250D01*
X64507750Y-33655000D01*
X65307000Y-33655000D01*
X65307000Y-32455750D01*
X65561000Y-32455750D01*
X65561000Y-33655000D01*
X66360250Y-33655000D01*
X66519000Y-33496250D01*
X66522072Y-32932000D01*
X66509812Y-32807518D01*
X66473502Y-32687820D01*
X66414537Y-32577506D01*
X66335185Y-32480815D01*
X66238494Y-32401463D01*
X66128180Y-32342498D01*
X66008482Y-32306188D01*
X65884000Y-32293928D01*
X65719750Y-32297000D01*
X65561000Y-32455750D01*
X65307000Y-32455750D01*
X65148250Y-32297000D01*
X64984000Y-32293928D01*
X64859518Y-32306188D01*
X64739820Y-32342498D01*
X64629506Y-32401463D01*
X64532815Y-32480815D01*
X64453463Y-32577506D01*
X64394498Y-32687820D01*
X64358188Y-32807518D01*
X64345928Y-32932000D01*
X64080072Y-32932000D01*
X64067812Y-32807518D01*
X64031502Y-32687820D01*
X63972537Y-32577506D01*
X63893185Y-32480815D01*
X63796494Y-32401463D01*
X63686180Y-32342498D01*
X63566482Y-32306188D01*
X63442000Y-32293928D01*
X63277750Y-32297000D01*
X63119000Y-32455750D01*
X62865000Y-32455750D01*
X62706250Y-32297000D01*
X62542000Y-32293928D01*
X62417518Y-32306188D01*
X62297820Y-32342498D01*
X62187506Y-32401463D01*
X62090815Y-32480815D01*
X62011463Y-32577506D01*
X61952498Y-32687820D01*
X61916188Y-32807518D01*
X61903928Y-32932000D01*
X60680072Y-32932000D01*
X60667812Y-32807518D01*
X60631502Y-32687820D01*
X60572537Y-32577506D01*
X60493185Y-32480815D01*
X60396494Y-32401463D01*
X60286180Y-32342498D01*
X60166482Y-32306188D01*
X60042000Y-32293928D01*
X59142000Y-32293928D01*
X59017518Y-32306188D01*
X58897820Y-32342498D01*
X58787506Y-32401463D01*
X58690815Y-32480815D01*
X58611463Y-32577506D01*
X58552498Y-32687820D01*
X58516188Y-32807518D01*
X58503928Y-32932000D01*
X58503928Y-33671938D01*
X58438729Y-33644932D01*
X58258089Y-33609000D01*
X58073911Y-33609000D01*
X57893271Y-33644932D01*
X57723111Y-33715414D01*
X57569972Y-33817738D01*
X57439738Y-33947972D01*
X57337414Y-34101111D01*
X57266932Y-34271271D01*
X57231000Y-34451911D01*
X57231000Y-34636089D01*
X57241977Y-34691272D01*
X57168729Y-34660932D01*
X56988089Y-34625000D01*
X56803911Y-34625000D01*
X56623271Y-34660932D01*
X56453111Y-34731414D01*
X56299972Y-34833738D01*
X56169738Y-34963972D01*
X56067414Y-35117111D01*
X55996932Y-35287271D01*
X55972847Y-35408351D01*
X55308271Y-36072928D01*
X55128500Y-36072928D01*
X55004018Y-36085188D01*
X54893500Y-36118713D01*
X54782982Y-36085188D01*
X54658500Y-36072928D01*
X53858500Y-36072928D01*
X53734018Y-36085188D01*
X53623500Y-36118713D01*
X53512982Y-36085188D01*
X53388500Y-36072928D01*
X52588500Y-36072928D01*
X52464018Y-36085188D01*
X52353500Y-36118713D01*
X52242982Y-36085188D01*
X52118500Y-36072928D01*
X51318500Y-36072928D01*
X51194018Y-36085188D01*
X51083500Y-36118713D01*
X50972982Y-36085188D01*
X50848500Y-36072928D01*
X50048500Y-36072928D01*
X49924018Y-36085188D01*
X49843142Y-36109721D01*
X49813474Y-36054217D01*
X49742299Y-35967491D01*
X49718501Y-35938493D01*
X49689503Y-35914695D01*
X48929159Y-35154351D01*
X48905074Y-35033271D01*
X48834592Y-34863111D01*
X48732268Y-34709972D01*
X48602034Y-34579738D01*
X48448895Y-34477414D01*
X48278735Y-34406932D01*
X48098095Y-34371000D01*
X47913917Y-34371000D01*
X47876702Y-34378403D01*
X47818588Y-34238101D01*
X47724111Y-34096707D01*
X47780301Y-33961052D01*
X47816233Y-33780412D01*
X47816233Y-33743000D01*
X47898260Y-33743000D01*
X48185158Y-33685932D01*
X48455411Y-33573990D01*
X48698632Y-33411475D01*
X48905475Y-33204632D01*
X49022000Y-33030240D01*
X49138525Y-33204632D01*
X49345368Y-33411475D01*
X49588589Y-33573990D01*
X49858842Y-33685932D01*
X50145740Y-33743000D01*
X50438260Y-33743000D01*
X50725158Y-33685932D01*
X50995411Y-33573990D01*
X51238632Y-33411475D01*
X51445475Y-33204632D01*
X51562000Y-33030240D01*
X51678525Y-33204632D01*
X51885368Y-33411475D01*
X52128589Y-33573990D01*
X52398842Y-33685932D01*
X52685740Y-33743000D01*
X52978260Y-33743000D01*
X53265158Y-33685932D01*
X53535411Y-33573990D01*
X53778632Y-33411475D01*
X53985475Y-33204632D01*
X54107195Y-33022466D01*
X54176822Y-33139355D01*
X54371731Y-33355588D01*
X54605080Y-33529641D01*
X54867901Y-33654825D01*
X55015110Y-33699476D01*
X55245000Y-33578155D01*
X55245000Y-32385000D01*
X55499000Y-32385000D01*
X55499000Y-33578155D01*
X55728890Y-33699476D01*
X55876099Y-33654825D01*
X56138920Y-33529641D01*
X56372269Y-33355588D01*
X56567178Y-33139355D01*
X56716157Y-32889252D01*
X56813481Y-32614891D01*
X56692814Y-32385000D01*
X55499000Y-32385000D01*
X55245000Y-32385000D01*
X55225000Y-32385000D01*
X55225000Y-32131000D01*
X55245000Y-32131000D01*
X55245000Y-30937845D01*
X55499000Y-30937845D01*
X55499000Y-32131000D01*
X56692814Y-32131000D01*
X56813481Y-31901109D01*
X56716157Y-31626748D01*
X56567178Y-31376645D01*
X56372269Y-31160412D01*
X56138920Y-30986359D01*
X55876099Y-30861175D01*
X55728890Y-30816524D01*
X55499000Y-30937845D01*
X55245000Y-30937845D01*
X55015110Y-30816524D01*
X54867901Y-30861175D01*
X54605080Y-30986359D01*
X54371731Y-31160412D01*
X54176822Y-31376645D01*
X54107195Y-31493534D01*
X53985475Y-31311368D01*
X53778632Y-31104525D01*
X53535411Y-30942010D01*
X53265158Y-30830068D01*
X52978260Y-30773000D01*
X52685740Y-30773000D01*
X52398842Y-30830068D01*
X52128589Y-30942010D01*
X51885368Y-31104525D01*
X51678525Y-31311368D01*
X51562000Y-31485760D01*
X51445475Y-31311368D01*
X51238632Y-31104525D01*
X50995411Y-30942010D01*
X50725158Y-30830068D01*
X50438260Y-30773000D01*
X50145740Y-30773000D01*
X49858842Y-30830068D01*
X49588589Y-30942010D01*
X49345368Y-31104525D01*
X49138525Y-31311368D01*
X49022000Y-31485760D01*
X48905475Y-31311368D01*
X48698632Y-31104525D01*
X48455411Y-30942010D01*
X48185158Y-30830068D01*
X47898260Y-30773000D01*
X47605740Y-30773000D01*
X47318842Y-30830068D01*
X47048589Y-30942010D01*
X46805368Y-31104525D01*
X46598525Y-31311368D01*
X46482000Y-31485760D01*
X46365475Y-31311368D01*
X46158632Y-31104525D01*
X45915411Y-30942010D01*
X45645158Y-30830068D01*
X45358260Y-30773000D01*
X45065740Y-30773000D01*
X44778842Y-30830068D01*
X44508589Y-30942010D01*
X44265368Y-31104525D01*
X44133513Y-31236380D01*
X44111502Y-31163820D01*
X44052537Y-31053506D01*
X43973185Y-30956815D01*
X43876494Y-30877463D01*
X43766180Y-30818498D01*
X43646482Y-30782188D01*
X43522000Y-30769928D01*
X41822000Y-30769928D01*
X41697518Y-30782188D01*
X41577820Y-30818498D01*
X41467506Y-30877463D01*
X41370815Y-30956815D01*
X41291463Y-31053506D01*
X41232498Y-31163820D01*
X41196188Y-31283518D01*
X41183928Y-31408000D01*
X41183928Y-32494494D01*
X41136441Y-32541981D01*
X41102674Y-32569693D01*
X41074961Y-32603461D01*
X41074958Y-32603464D01*
X40992080Y-32704451D01*
X40909902Y-32858197D01*
X40859295Y-33025020D01*
X40842209Y-33198510D01*
X40846491Y-33241989D01*
X40846490Y-34228990D01*
X40139515Y-34228990D01*
X40096046Y-34224709D01*
X40052577Y-34228990D01*
X40052570Y-34228990D01*
X39938732Y-34240202D01*
X39922556Y-34241795D01*
X39889730Y-34251753D01*
X39755734Y-34292401D01*
X39704111Y-34319994D01*
X39601987Y-34374579D01*
X39501000Y-34457458D01*
X39500998Y-34457460D01*
X39467230Y-34485173D01*
X39439517Y-34518941D01*
X38278950Y-35679510D01*
X38245183Y-35707222D01*
X38217470Y-35740990D01*
X38217467Y-35740993D01*
X38134588Y-35841981D01*
X38052411Y-35995726D01*
X38001804Y-36162550D01*
X37984718Y-36336039D01*
X37989000Y-36379515D01*
X37988999Y-39338530D01*
X37984718Y-39381999D01*
X37988999Y-39425468D01*
X37988999Y-39425475D01*
X38001804Y-39555488D01*
X38052410Y-39722311D01*
X38134588Y-39876057D01*
X38245182Y-40010816D01*
X38278955Y-40038533D01*
X38527345Y-40286923D01*
X38541414Y-40320889D01*
X38643738Y-40474028D01*
X38773972Y-40604262D01*
X38927111Y-40706586D01*
X39097271Y-40777068D01*
X39277911Y-40813000D01*
X39462089Y-40813000D01*
X39642729Y-40777068D01*
X39812889Y-40706586D01*
X39966028Y-40604262D01*
X40096262Y-40474028D01*
X40198586Y-40320889D01*
X40269068Y-40150729D01*
X40305000Y-39970089D01*
X40305000Y-39785911D01*
X40269068Y-39605271D01*
X40198586Y-39435111D01*
X40096262Y-39281972D01*
X39966028Y-39151738D01*
X39812889Y-39049414D01*
X39778923Y-39035345D01*
X39758999Y-39015421D01*
X39758999Y-38211000D01*
X40520428Y-38211000D01*
X40532688Y-38335482D01*
X40568998Y-38455180D01*
X40627963Y-38565494D01*
X40707315Y-38662185D01*
X40804006Y-38741537D01*
X40914320Y-38800502D01*
X41034018Y-38836812D01*
X41158500Y-38849072D01*
X41272750Y-38846000D01*
X41431500Y-38687250D01*
X41431500Y-37588000D01*
X40682250Y-37588000D01*
X40523500Y-37746750D01*
X40520428Y-38211000D01*
X39758999Y-38211000D01*
X39758999Y-36702617D01*
X40462626Y-35998990D01*
X41364912Y-35998990D01*
X41441922Y-36076000D01*
X41431498Y-36076000D01*
X41431498Y-36234748D01*
X41272750Y-36076000D01*
X41158500Y-36072928D01*
X41034018Y-36085188D01*
X40914320Y-36121498D01*
X40804006Y-36180463D01*
X40707315Y-36259815D01*
X40627963Y-36356506D01*
X40568998Y-36466820D01*
X40532688Y-36586518D01*
X40520428Y-36711000D01*
X40523500Y-37175250D01*
X40682250Y-37334000D01*
X41431500Y-37334000D01*
X41431500Y-37314000D01*
X41685500Y-37314000D01*
X41685500Y-37334000D01*
X41705500Y-37334000D01*
X41705500Y-37588000D01*
X41685500Y-37588000D01*
X41685500Y-38687250D01*
X41844250Y-38846000D01*
X41958500Y-38849072D01*
X42082982Y-38836812D01*
X42193500Y-38803287D01*
X42304018Y-38836812D01*
X42428500Y-38849072D01*
X43228500Y-38849072D01*
X43352982Y-38836812D01*
X43463500Y-38803287D01*
X43574018Y-38836812D01*
X43698500Y-38849072D01*
X44498500Y-38849072D01*
X44622982Y-38836812D01*
X44733500Y-38803287D01*
X44844018Y-38836812D01*
X44968500Y-38849072D01*
X45768500Y-38849072D01*
X45892982Y-38836812D01*
X45954549Y-38818136D01*
X46009683Y-38885317D01*
X46043456Y-38913034D01*
X47662618Y-40532197D01*
X47563111Y-40573414D01*
X47409972Y-40675738D01*
X47279738Y-40805972D01*
X47177414Y-40959111D01*
X47106932Y-41129271D01*
X47071000Y-41309911D01*
X47071000Y-41494089D01*
X47106932Y-41674729D01*
X47177414Y-41844889D01*
X47279738Y-41998028D01*
X47409972Y-42128262D01*
X47563111Y-42230586D01*
X47733271Y-42301068D01*
X47854351Y-42325153D01*
X47950200Y-42421002D01*
X47973999Y-42450001D01*
X48089724Y-42544974D01*
X48221753Y-42615546D01*
X48365014Y-42659003D01*
X48476667Y-42670000D01*
X48476676Y-42670000D01*
X48513999Y-42673676D01*
X48551322Y-42670000D01*
X58128465Y-42670000D01*
X58231111Y-42738586D01*
X58401271Y-42809068D01*
X58581911Y-42845000D01*
X58696199Y-42845000D01*
X53650198Y-47891001D01*
X46473321Y-47891001D01*
X46435998Y-47887325D01*
X46398676Y-47891001D01*
X46398666Y-47891001D01*
X46287013Y-47901998D01*
X46143752Y-47945455D01*
X46011722Y-48016027D01*
X45928082Y-48084669D01*
X45895998Y-48111000D01*
X45872200Y-48139998D01*
X42317503Y-51694696D01*
X42288499Y-51718499D01*
X42234594Y-51784183D01*
X42193526Y-51834224D01*
X42125747Y-51961029D01*
X42122954Y-51966254D01*
X42114326Y-51994696D01*
X42082982Y-51985188D01*
X41958500Y-51972928D01*
X41158500Y-51972928D01*
X41034018Y-51985188D01*
X40914320Y-52021498D01*
X40804006Y-52080463D01*
X40707315Y-52159815D01*
X40627963Y-52256506D01*
X40568998Y-52366820D01*
X40532688Y-52486518D01*
X40520428Y-52611000D01*
X40520428Y-53815000D01*
X36990882Y-53815000D01*
X36998072Y-53742000D01*
X36998072Y-52305506D01*
X38634579Y-50669000D01*
X39063308Y-50669000D01*
X39097271Y-50683068D01*
X39277911Y-50719000D01*
X39462089Y-50719000D01*
X39642729Y-50683068D01*
X39812889Y-50612586D01*
X39966028Y-50510262D01*
X40096262Y-50380028D01*
X40198586Y-50226889D01*
X40269068Y-50056729D01*
X40305000Y-49876089D01*
X40305000Y-49691911D01*
X40269068Y-49511271D01*
X40198586Y-49341111D01*
X40096262Y-49187972D01*
X39966028Y-49057738D01*
X39812889Y-48955414D01*
X39642729Y-48884932D01*
X39462089Y-48849000D01*
X39277911Y-48849000D01*
X39097271Y-48884932D01*
X39063308Y-48899000D01*
X38311465Y-48899000D01*
X38267999Y-48894719D01*
X38224533Y-48899000D01*
X38224523Y-48899000D01*
X38094510Y-48911805D01*
X37927687Y-48962411D01*
X37773941Y-49044589D01*
X37773939Y-49044590D01*
X37773940Y-49044590D01*
X37672953Y-49127468D01*
X37672951Y-49127470D01*
X37639183Y-49155183D01*
X37611470Y-49188951D01*
X36932577Y-49867845D01*
X36949502Y-49836180D01*
X36985812Y-49716482D01*
X36998072Y-49592000D01*
X36995000Y-48377750D01*
X36836250Y-48219000D01*
X35687000Y-48219000D01*
X35687000Y-50068250D01*
X35845750Y-50227000D01*
X36360000Y-50230072D01*
X36484482Y-50217812D01*
X36604180Y-50181502D01*
X36635845Y-50164577D01*
X36395408Y-50405013D01*
X36283254Y-50370992D01*
X36110000Y-50353928D01*
X35010000Y-50353928D01*
X34836746Y-50370992D01*
X34670150Y-50421528D01*
X34516614Y-50503595D01*
X34382038Y-50614038D01*
X34271595Y-50748614D01*
X34189528Y-50902150D01*
X34138992Y-51068746D01*
X34121928Y-51242000D01*
X34121928Y-53742000D01*
X34129118Y-53815000D01*
X17595501Y-53815000D01*
X18057093Y-53506575D01*
X18506575Y-53057093D01*
X18859730Y-52528558D01*
X19102988Y-51941281D01*
X19227000Y-51317832D01*
X19227000Y-50682168D01*
X19102988Y-50058719D01*
X18859730Y-49471442D01*
X18506575Y-48942907D01*
X18057093Y-48493425D01*
X17528558Y-48140270D01*
X16941281Y-47897012D01*
X16317832Y-47773000D01*
X15682168Y-47773000D01*
X15058719Y-47897012D01*
X14471442Y-48140270D01*
X13942907Y-48493425D01*
X13493425Y-48942907D01*
X13185000Y-49404499D01*
X13185000Y-29595501D01*
X13493425Y-30057093D01*
X13942907Y-30506575D01*
X14471442Y-30859730D01*
X15058719Y-31102988D01*
X15682168Y-31227000D01*
X15777420Y-31227000D01*
X15406951Y-31597469D01*
X15373184Y-31625181D01*
X15345471Y-31658949D01*
X15345468Y-31658952D01*
X15262590Y-31759939D01*
X15180412Y-31913685D01*
X15129805Y-32080508D01*
X15112719Y-32253998D01*
X15117001Y-32297477D01*
X15117000Y-40058531D01*
X15112719Y-40102000D01*
X15117000Y-40145469D01*
X15117000Y-40145476D01*
X15126016Y-40237014D01*
X15129391Y-40271281D01*
X15129805Y-40275489D01*
X15180411Y-40442312D01*
X15262589Y-40596058D01*
X15373183Y-40730817D01*
X15406956Y-40758534D01*
X16456104Y-41807682D01*
X16377463Y-41903506D01*
X16318498Y-42013820D01*
X16282188Y-42133518D01*
X16269928Y-42258000D01*
X16269928Y-45058000D01*
X16282188Y-45182482D01*
X16318498Y-45302180D01*
X16377463Y-45412494D01*
X16456815Y-45509185D01*
X16553506Y-45588537D01*
X16663820Y-45647502D01*
X16783518Y-45683812D01*
X16908000Y-45696072D01*
X19990941Y-45696072D01*
X21327001Y-47032133D01*
X21327001Y-47641928D01*
X20512000Y-47641928D01*
X20338746Y-47658992D01*
X20172150Y-47709528D01*
X20018614Y-47791595D01*
X19884038Y-47902038D01*
X19773595Y-48036614D01*
X19691528Y-48190150D01*
X19640992Y-48356746D01*
X19623928Y-48530000D01*
X19623928Y-50530000D01*
X19640992Y-50703254D01*
X19691528Y-50869850D01*
X19773595Y-51023386D01*
X19884038Y-51157962D01*
X20018614Y-51268405D01*
X20172150Y-51350472D01*
X20338746Y-51401008D01*
X20512000Y-51418072D01*
X24412000Y-51418072D01*
X24585254Y-51401008D01*
X24751850Y-51350472D01*
X24905386Y-51268405D01*
X25039962Y-51157962D01*
X25150405Y-51023386D01*
X25232472Y-50869850D01*
X25259727Y-50780000D01*
X27023928Y-50780000D01*
X27036188Y-50904482D01*
X27072498Y-51024180D01*
X27131463Y-51134494D01*
X27210815Y-51231185D01*
X27307506Y-51310537D01*
X27417820Y-51369502D01*
X27537518Y-51405812D01*
X27662000Y-51418072D01*
X29576250Y-51415000D01*
X29735000Y-51256250D01*
X29735000Y-49657000D01*
X29989000Y-49657000D01*
X29989000Y-51256250D01*
X30147750Y-51415000D01*
X32062000Y-51418072D01*
X32186482Y-51405812D01*
X32306180Y-51369502D01*
X32416494Y-51310537D01*
X32513185Y-51231185D01*
X32592537Y-51134494D01*
X32651502Y-51024180D01*
X32687812Y-50904482D01*
X32700072Y-50780000D01*
X32697000Y-49815750D01*
X32538250Y-49657000D01*
X29989000Y-49657000D01*
X29735000Y-49657000D01*
X27185750Y-49657000D01*
X27027000Y-49815750D01*
X27023928Y-50780000D01*
X25259727Y-50780000D01*
X25283008Y-50703254D01*
X25300072Y-50530000D01*
X25300072Y-49592000D01*
X34121928Y-49592000D01*
X34134188Y-49716482D01*
X34170498Y-49836180D01*
X34229463Y-49946494D01*
X34308815Y-50043185D01*
X34405506Y-50122537D01*
X34515820Y-50181502D01*
X34635518Y-50217812D01*
X34760000Y-50230072D01*
X35274250Y-50227000D01*
X35433000Y-50068250D01*
X35433000Y-48219000D01*
X34283750Y-48219000D01*
X34125000Y-48377750D01*
X34121928Y-49592000D01*
X25300072Y-49592000D01*
X25300072Y-48530000D01*
X25283008Y-48356746D01*
X25259728Y-48280000D01*
X27023928Y-48280000D01*
X27027000Y-49244250D01*
X27185750Y-49403000D01*
X29735000Y-49403000D01*
X29735000Y-47803750D01*
X29989000Y-47803750D01*
X29989000Y-49403000D01*
X32538250Y-49403000D01*
X32697000Y-49244250D01*
X32700072Y-48280000D01*
X32687812Y-48155518D01*
X32651502Y-48035820D01*
X32592537Y-47925506D01*
X32513185Y-47828815D01*
X32416494Y-47749463D01*
X32306180Y-47690498D01*
X32186482Y-47654188D01*
X32062000Y-47641928D01*
X30147750Y-47645000D01*
X29989000Y-47803750D01*
X29735000Y-47803750D01*
X29576250Y-47645000D01*
X27662000Y-47641928D01*
X27537518Y-47654188D01*
X27417820Y-47690498D01*
X27307506Y-47749463D01*
X27210815Y-47828815D01*
X27131463Y-47925506D01*
X27072498Y-48035820D01*
X27036188Y-48155518D01*
X27023928Y-48280000D01*
X25259728Y-48280000D01*
X25232472Y-48190150D01*
X25150405Y-48036614D01*
X25039962Y-47902038D01*
X24905386Y-47791595D01*
X24751850Y-47709528D01*
X24585254Y-47658992D01*
X24412000Y-47641928D01*
X23597000Y-47641928D01*
X23597000Y-46617743D01*
X23599535Y-46592000D01*
X34121928Y-46592000D01*
X34125000Y-47806250D01*
X34283750Y-47965000D01*
X35433000Y-47965000D01*
X35433000Y-46115750D01*
X35687000Y-46115750D01*
X35687000Y-47965000D01*
X36836250Y-47965000D01*
X36995000Y-47806250D01*
X36998072Y-46592000D01*
X36985812Y-46467518D01*
X36949502Y-46347820D01*
X36890537Y-46237506D01*
X36811185Y-46140815D01*
X36714494Y-46061463D01*
X36604180Y-46002498D01*
X36484482Y-45966188D01*
X36360000Y-45953928D01*
X35845750Y-45957000D01*
X35687000Y-46115750D01*
X35433000Y-46115750D01*
X35274250Y-45957000D01*
X34760000Y-45953928D01*
X34635518Y-45966188D01*
X34515820Y-46002498D01*
X34405506Y-46061463D01*
X34308815Y-46140815D01*
X34229463Y-46237506D01*
X34170498Y-46347820D01*
X34134188Y-46467518D01*
X34121928Y-46592000D01*
X23599535Y-46592000D01*
X23602490Y-46561999D01*
X23597000Y-46506255D01*
X23597000Y-46506248D01*
X23580577Y-46339501D01*
X23515676Y-46125553D01*
X23410284Y-45928377D01*
X23268449Y-45755551D01*
X23225141Y-45720009D01*
X22799785Y-45294653D01*
X22833812Y-45182482D01*
X22846072Y-45058000D01*
X22846072Y-42258000D01*
X22833812Y-42133518D01*
X22797502Y-42013820D01*
X22738537Y-41903506D01*
X22659185Y-41806815D01*
X22591700Y-41751432D01*
X23916132Y-40427000D01*
X27493752Y-40427000D01*
X27660499Y-40410577D01*
X27874447Y-40345676D01*
X28071623Y-40240284D01*
X28244449Y-40098449D01*
X28386284Y-39925623D01*
X28491676Y-39728447D01*
X28556577Y-39514499D01*
X28578491Y-39292000D01*
X28556577Y-39069501D01*
X28491676Y-38855553D01*
X28386284Y-38658377D01*
X28244449Y-38485551D01*
X28071623Y-38343716D01*
X27874447Y-38238324D01*
X27660499Y-38173423D01*
X27493752Y-38157000D01*
X23501741Y-38157000D01*
X23445999Y-38151510D01*
X23390257Y-38157000D01*
X23390248Y-38157000D01*
X23223501Y-38173423D01*
X23009553Y-38238324D01*
X22812377Y-38343716D01*
X22639551Y-38485551D01*
X22604009Y-38528859D01*
X19512941Y-41619928D01*
X18771507Y-41619928D01*
X16887000Y-39735422D01*
X16887000Y-35594004D01*
X16908000Y-35596072D01*
X22208000Y-35596072D01*
X22332482Y-35583812D01*
X22452180Y-35547502D01*
X22562494Y-35488537D01*
X22659185Y-35409185D01*
X22738537Y-35312494D01*
X22797502Y-35202180D01*
X22833812Y-35082482D01*
X22846072Y-34958000D01*
X22846072Y-34693000D01*
X29124249Y-34693000D01*
X29180000Y-34698491D01*
X29235751Y-34693000D01*
X29235752Y-34693000D01*
X29402499Y-34676577D01*
X29595001Y-34618182D01*
X29595000Y-42813421D01*
X29055077Y-43353345D01*
X29021111Y-43367414D01*
X28867972Y-43469738D01*
X28737738Y-43599972D01*
X28635414Y-43753111D01*
X28564932Y-43923271D01*
X28529000Y-44103911D01*
X28529000Y-44288089D01*
X28564932Y-44468729D01*
X28635414Y-44638889D01*
X28737738Y-44792028D01*
X28867972Y-44922262D01*
X29021111Y-45024586D01*
X29191271Y-45095068D01*
X29371911Y-45131000D01*
X29556089Y-45131000D01*
X29736729Y-45095068D01*
X29906889Y-45024586D01*
X30060028Y-44922262D01*
X30190262Y-44792028D01*
X30292586Y-44638889D01*
X30306655Y-44604923D01*
X30538578Y-44373000D01*
X31385928Y-44373000D01*
X31398188Y-44497482D01*
X31434498Y-44617180D01*
X31493463Y-44727494D01*
X31572815Y-44824185D01*
X31669506Y-44903537D01*
X31779820Y-44962502D01*
X31899518Y-44998812D01*
X32024000Y-45011072D01*
X32988250Y-45008000D01*
X33147000Y-44849250D01*
X33147000Y-42300000D01*
X33401000Y-42300000D01*
X33401000Y-44849250D01*
X33559750Y-45008000D01*
X34524000Y-45011072D01*
X34648482Y-44998812D01*
X34768180Y-44962502D01*
X34878494Y-44903537D01*
X34975185Y-44824185D01*
X35054537Y-44727494D01*
X35113502Y-44617180D01*
X35149812Y-44497482D01*
X35162072Y-44373000D01*
X35159000Y-42458750D01*
X35000250Y-42300000D01*
X33401000Y-42300000D01*
X33147000Y-42300000D01*
X31547750Y-42300000D01*
X31389000Y-42458750D01*
X31385928Y-44373000D01*
X30538578Y-44373000D01*
X31075050Y-43836529D01*
X31108817Y-43808817D01*
X31157015Y-43750089D01*
X31219410Y-43674060D01*
X31219411Y-43674059D01*
X31301589Y-43520313D01*
X31347971Y-43367414D01*
X31352195Y-43353491D01*
X31357765Y-43296932D01*
X31365000Y-43223477D01*
X31365000Y-43223469D01*
X31369281Y-43180000D01*
X31365000Y-43136531D01*
X31365000Y-39973000D01*
X31385928Y-39973000D01*
X31389000Y-41887250D01*
X31547750Y-42046000D01*
X33147000Y-42046000D01*
X33147000Y-39496750D01*
X33401000Y-39496750D01*
X33401000Y-42046000D01*
X35000250Y-42046000D01*
X35159000Y-41887250D01*
X35162072Y-39973000D01*
X35149812Y-39848518D01*
X35113502Y-39728820D01*
X35054537Y-39618506D01*
X34975185Y-39521815D01*
X34878494Y-39442463D01*
X34768180Y-39383498D01*
X34648482Y-39347188D01*
X34524000Y-39334928D01*
X33559750Y-39338000D01*
X33401000Y-39496750D01*
X33147000Y-39496750D01*
X32988250Y-39338000D01*
X32024000Y-39334928D01*
X31899518Y-39347188D01*
X31779820Y-39383498D01*
X31669506Y-39442463D01*
X31572815Y-39521815D01*
X31493463Y-39618506D01*
X31434498Y-39728820D01*
X31398188Y-39848518D01*
X31385928Y-39973000D01*
X31365000Y-39973000D01*
X31365000Y-34987000D01*
X31385928Y-34987000D01*
X31385928Y-35723000D01*
X31402992Y-35896254D01*
X31453528Y-36062850D01*
X31535595Y-36216386D01*
X31646038Y-36350962D01*
X31780614Y-36461405D01*
X31934150Y-36543472D01*
X32100746Y-36594008D01*
X32274000Y-36611072D01*
X34274000Y-36611072D01*
X34447254Y-36594008D01*
X34613850Y-36543472D01*
X34767386Y-36461405D01*
X34901962Y-36350962D01*
X35012405Y-36216386D01*
X35094472Y-36062850D01*
X35145008Y-35896254D01*
X35162072Y-35723000D01*
X35162072Y-31823000D01*
X35145008Y-31649746D01*
X35094472Y-31483150D01*
X35012405Y-31329614D01*
X34901962Y-31195038D01*
X34767386Y-31084595D01*
X34613850Y-31002528D01*
X34447254Y-30951992D01*
X34274000Y-30934928D01*
X32274000Y-30934928D01*
X32100746Y-30951992D01*
X31934150Y-31002528D01*
X31859515Y-31042421D01*
X31530041Y-30712947D01*
X31505031Y-30682472D01*
X31729511Y-30589490D01*
X31972732Y-30426975D01*
X32179575Y-30220132D01*
X32296100Y-30045740D01*
X32412625Y-30220132D01*
X32619468Y-30426975D01*
X32862689Y-30589490D01*
X33132942Y-30701432D01*
X33419840Y-30758500D01*
X33712360Y-30758500D01*
X33999258Y-30701432D01*
X34269511Y-30589490D01*
X34512732Y-30426975D01*
X34719575Y-30220132D01*
X34836100Y-30045740D01*
X34952625Y-30220132D01*
X35159468Y-30426975D01*
X35402689Y-30589490D01*
X35672942Y-30701432D01*
X35959840Y-30758500D01*
X36252360Y-30758500D01*
X36539258Y-30701432D01*
X36809511Y-30589490D01*
X37052732Y-30426975D01*
X37259575Y-30220132D01*
X37376100Y-30045740D01*
X37492625Y-30220132D01*
X37699468Y-30426975D01*
X37942689Y-30589490D01*
X38212942Y-30701432D01*
X38499840Y-30758500D01*
X38792360Y-30758500D01*
X39079258Y-30701432D01*
X39349511Y-30589490D01*
X39592732Y-30426975D01*
X39799575Y-30220132D01*
X39916100Y-30045740D01*
X40032625Y-30220132D01*
X40239468Y-30426975D01*
X40482689Y-30589490D01*
X40752942Y-30701432D01*
X41039840Y-30758500D01*
X41332360Y-30758500D01*
X41619258Y-30701432D01*
X41889511Y-30589490D01*
X42132732Y-30426975D01*
X42339575Y-30220132D01*
X42456100Y-30045740D01*
X42572625Y-30220132D01*
X42779468Y-30426975D01*
X43022689Y-30589490D01*
X43292942Y-30701432D01*
X43579840Y-30758500D01*
X43872360Y-30758500D01*
X44159258Y-30701432D01*
X44429511Y-30589490D01*
X44672732Y-30426975D01*
X44879575Y-30220132D01*
X44996100Y-30045740D01*
X45112625Y-30220132D01*
X45319468Y-30426975D01*
X45562689Y-30589490D01*
X45832942Y-30701432D01*
X46119840Y-30758500D01*
X46412360Y-30758500D01*
X46699258Y-30701432D01*
X46969511Y-30589490D01*
X47212732Y-30426975D01*
X47419575Y-30220132D01*
X47536100Y-30045740D01*
X47652625Y-30220132D01*
X47859468Y-30426975D01*
X48102689Y-30589490D01*
X48372942Y-30701432D01*
X48659840Y-30758500D01*
X48952360Y-30758500D01*
X49239258Y-30701432D01*
X49509511Y-30589490D01*
X49752732Y-30426975D01*
X49959575Y-30220132D01*
X50076100Y-30045740D01*
X50192625Y-30220132D01*
X50399468Y-30426975D01*
X50642689Y-30589490D01*
X50912942Y-30701432D01*
X51199840Y-30758500D01*
X51492360Y-30758500D01*
X51779258Y-30701432D01*
X52049511Y-30589490D01*
X52292732Y-30426975D01*
X52499575Y-30220132D01*
X52616100Y-30045740D01*
X52732625Y-30220132D01*
X52939468Y-30426975D01*
X53182689Y-30589490D01*
X53452942Y-30701432D01*
X53739840Y-30758500D01*
X54032360Y-30758500D01*
X54319258Y-30701432D01*
X54589511Y-30589490D01*
X54832732Y-30426975D01*
X55039575Y-30220132D01*
X55156100Y-30045740D01*
X55272625Y-30220132D01*
X55479468Y-30426975D01*
X55722689Y-30589490D01*
X55992942Y-30701432D01*
X56279840Y-30758500D01*
X56572360Y-30758500D01*
X56859258Y-30701432D01*
X57129511Y-30589490D01*
X57372732Y-30426975D01*
X57579575Y-30220132D01*
X57696100Y-30045740D01*
X57812625Y-30220132D01*
X58019468Y-30426975D01*
X58262689Y-30589490D01*
X58532942Y-30701432D01*
X58819840Y-30758500D01*
X59112360Y-30758500D01*
X59399258Y-30701432D01*
X59669511Y-30589490D01*
X59912732Y-30426975D01*
X60119575Y-30220132D01*
X60236100Y-30045740D01*
X60352625Y-30220132D01*
X60559468Y-30426975D01*
X60802689Y-30589490D01*
X61072942Y-30701432D01*
X61359840Y-30758500D01*
X61652360Y-30758500D01*
X61939258Y-30701432D01*
X62209511Y-30589490D01*
X62452732Y-30426975D01*
X62659575Y-30220132D01*
X62776100Y-30045740D01*
X62892625Y-30220132D01*
X63099468Y-30426975D01*
X63342689Y-30589490D01*
X63612942Y-30701432D01*
X63899840Y-30758500D01*
X64192360Y-30758500D01*
X64479258Y-30701432D01*
X64749511Y-30589490D01*
X64992732Y-30426975D01*
X65199575Y-30220132D01*
X65316100Y-30045740D01*
X65432625Y-30220132D01*
X65639468Y-30426975D01*
X65882689Y-30589490D01*
X66152942Y-30701432D01*
X66439840Y-30758500D01*
X66732360Y-30758500D01*
X67019258Y-30701432D01*
X67289511Y-30589490D01*
X67532732Y-30426975D01*
X67739575Y-30220132D01*
X67861295Y-30037966D01*
X67930922Y-30154855D01*
X68125831Y-30371088D01*
X68359180Y-30545141D01*
X68622001Y-30670325D01*
X68769210Y-30714976D01*
X68999100Y-30593655D01*
X68999100Y-29400500D01*
X69253100Y-29400500D01*
X69253100Y-30593655D01*
X69482990Y-30714976D01*
X69630199Y-30670325D01*
X69893020Y-30545141D01*
X70126369Y-30371088D01*
X70321278Y-30154855D01*
X70470257Y-29904752D01*
X70567581Y-29630391D01*
X70446914Y-29400500D01*
X69253100Y-29400500D01*
X68999100Y-29400500D01*
X68979100Y-29400500D01*
X68979100Y-29146500D01*
X68999100Y-29146500D01*
X68999100Y-29126500D01*
X69253100Y-29126500D01*
X69253100Y-29146500D01*
X70446914Y-29146500D01*
X70567581Y-28916609D01*
X70470257Y-28642248D01*
X70321278Y-28392145D01*
X70126369Y-28175912D01*
X69896694Y-28004600D01*
X70072732Y-27886975D01*
X70279575Y-27680132D01*
X70442090Y-27436911D01*
X70554032Y-27166658D01*
X70611100Y-26879760D01*
X70611100Y-26587240D01*
X70554032Y-26300342D01*
X70442090Y-26030089D01*
X70279575Y-25786868D01*
X70072732Y-25580025D01*
X69829511Y-25417510D01*
X69559258Y-25305568D01*
X69272360Y-25248500D01*
X68979840Y-25248500D01*
X68692942Y-25305568D01*
X68422689Y-25417510D01*
X68179468Y-25580025D01*
X67972625Y-25786868D01*
X67856100Y-25961260D01*
X67739575Y-25786868D01*
X67532732Y-25580025D01*
X67289511Y-25417510D01*
X67019258Y-25305568D01*
X66732360Y-25248500D01*
X66439840Y-25248500D01*
X66152942Y-25305568D01*
X65882689Y-25417510D01*
X65639468Y-25580025D01*
X65432625Y-25786868D01*
X65316100Y-25961260D01*
X65199575Y-25786868D01*
X64992732Y-25580025D01*
X64749511Y-25417510D01*
X64479258Y-25305568D01*
X64192360Y-25248500D01*
X63899840Y-25248500D01*
X63612942Y-25305568D01*
X63342689Y-25417510D01*
X63099468Y-25580025D01*
X62892625Y-25786868D01*
X62776100Y-25961260D01*
X62659575Y-25786868D01*
X62452732Y-25580025D01*
X62209511Y-25417510D01*
X61939258Y-25305568D01*
X61652360Y-25248500D01*
X61359840Y-25248500D01*
X61072942Y-25305568D01*
X60802689Y-25417510D01*
X60559468Y-25580025D01*
X60352625Y-25786868D01*
X60236100Y-25961260D01*
X60119575Y-25786868D01*
X59912732Y-25580025D01*
X59669511Y-25417510D01*
X59399258Y-25305568D01*
X59112360Y-25248500D01*
X58819840Y-25248500D01*
X58532942Y-25305568D01*
X58262689Y-25417510D01*
X58019468Y-25580025D01*
X57812625Y-25786868D01*
X57696100Y-25961260D01*
X57579575Y-25786868D01*
X57372732Y-25580025D01*
X57129511Y-25417510D01*
X56859258Y-25305568D01*
X56572360Y-25248500D01*
X56279840Y-25248500D01*
X55992942Y-25305568D01*
X55722689Y-25417510D01*
X55479468Y-25580025D01*
X55272625Y-25786868D01*
X55156100Y-25961260D01*
X55039575Y-25786868D01*
X54832732Y-25580025D01*
X54589511Y-25417510D01*
X54319258Y-25305568D01*
X54032360Y-25248500D01*
X53739840Y-25248500D01*
X53452942Y-25305568D01*
X53182689Y-25417510D01*
X52939468Y-25580025D01*
X52732625Y-25786868D01*
X52616100Y-25961260D01*
X52499575Y-25786868D01*
X52292732Y-25580025D01*
X52049511Y-25417510D01*
X51779258Y-25305568D01*
X51492360Y-25248500D01*
X51199840Y-25248500D01*
X50912942Y-25305568D01*
X50642689Y-25417510D01*
X50399468Y-25580025D01*
X50192625Y-25786868D01*
X50076100Y-25961260D01*
X49959575Y-25786868D01*
X49752732Y-25580025D01*
X49509511Y-25417510D01*
X49239258Y-25305568D01*
X48952360Y-25248500D01*
X48659840Y-25248500D01*
X48372942Y-25305568D01*
X48102689Y-25417510D01*
X47859468Y-25580025D01*
X47652625Y-25786868D01*
X47536100Y-25961260D01*
X47419575Y-25786868D01*
X47212732Y-25580025D01*
X46969511Y-25417510D01*
X46699258Y-25305568D01*
X46412360Y-25248500D01*
X46119840Y-25248500D01*
X45832942Y-25305568D01*
X45562689Y-25417510D01*
X45319468Y-25580025D01*
X45112625Y-25786868D01*
X44996100Y-25961260D01*
X44879575Y-25786868D01*
X44672732Y-25580025D01*
X44429511Y-25417510D01*
X44159258Y-25305568D01*
X43872360Y-25248500D01*
X43579840Y-25248500D01*
X43292942Y-25305568D01*
X43022689Y-25417510D01*
X42779468Y-25580025D01*
X42572625Y-25786868D01*
X42456100Y-25961260D01*
X42339575Y-25786868D01*
X42132732Y-25580025D01*
X41889511Y-25417510D01*
X41619258Y-25305568D01*
X41332360Y-25248500D01*
X41039840Y-25248500D01*
X40752942Y-25305568D01*
X40482689Y-25417510D01*
X40239468Y-25580025D01*
X40032625Y-25786868D01*
X39916100Y-25961260D01*
X39799575Y-25786868D01*
X39592732Y-25580025D01*
X39349511Y-25417510D01*
X39079258Y-25305568D01*
X38792360Y-25248500D01*
X38499840Y-25248500D01*
X38212942Y-25305568D01*
X37942689Y-25417510D01*
X37699468Y-25580025D01*
X37492625Y-25786868D01*
X37376100Y-25961260D01*
X37259575Y-25786868D01*
X37052732Y-25580025D01*
X36809511Y-25417510D01*
X36539258Y-25305568D01*
X36252360Y-25248500D01*
X35959840Y-25248500D01*
X35672942Y-25305568D01*
X35402689Y-25417510D01*
X35159468Y-25580025D01*
X34952625Y-25786868D01*
X34836100Y-25961260D01*
X34719575Y-25786868D01*
X34512732Y-25580025D01*
X34269511Y-25417510D01*
X33999258Y-25305568D01*
X33712360Y-25248500D01*
X33419840Y-25248500D01*
X33132942Y-25305568D01*
X32862689Y-25417510D01*
X32619468Y-25580025D01*
X32412625Y-25786868D01*
X32296100Y-25961260D01*
X32179575Y-25786868D01*
X31972732Y-25580025D01*
X31729511Y-25417510D01*
X31459258Y-25305568D01*
X31172360Y-25248500D01*
X30879840Y-25248500D01*
X30592942Y-25305568D01*
X30322689Y-25417510D01*
X30079468Y-25580025D01*
X29872625Y-25786868D01*
X29756100Y-25961260D01*
X29639575Y-25786868D01*
X29432732Y-25580025D01*
X29189511Y-25417510D01*
X28919258Y-25305568D01*
X28632360Y-25248500D01*
X28339840Y-25248500D01*
X28052942Y-25305568D01*
X27782689Y-25417510D01*
X27539468Y-25580025D01*
X27332625Y-25786868D01*
X27216100Y-25961260D01*
X27099575Y-25786868D01*
X26892732Y-25580025D01*
X26649511Y-25417510D01*
X26379258Y-25305568D01*
X26092360Y-25248500D01*
X25799840Y-25248500D01*
X25512942Y-25305568D01*
X25242689Y-25417510D01*
X24999468Y-25580025D01*
X24792625Y-25786868D01*
X24676100Y-25961260D01*
X24559575Y-25786868D01*
X24352732Y-25580025D01*
X24109511Y-25417510D01*
X23839258Y-25305568D01*
X23552360Y-25248500D01*
X23259840Y-25248500D01*
X22972942Y-25305568D01*
X22702689Y-25417510D01*
X22459468Y-25580025D01*
X22252625Y-25786868D01*
X22211444Y-25848500D01*
X22060756Y-25848500D01*
X22019575Y-25786868D01*
X21812732Y-25580025D01*
X21569511Y-25417510D01*
X21299258Y-25305568D01*
X21012360Y-25248500D01*
X20719840Y-25248500D01*
X20432942Y-25305568D01*
X20162689Y-25417510D01*
X19919468Y-25580025D01*
X19712625Y-25786868D01*
X19550110Y-26030089D01*
X19438168Y-26300342D01*
X19381100Y-26587240D01*
X19381100Y-26879760D01*
X19395561Y-26952461D01*
X19133900Y-27214122D01*
X19102988Y-27058719D01*
X18859730Y-26471442D01*
X18506575Y-25942907D01*
X18057093Y-25493425D01*
X17528558Y-25140270D01*
X16941281Y-24897012D01*
X16317832Y-24773000D01*
X15682168Y-24773000D01*
X15058719Y-24897012D01*
X14471442Y-25140270D01*
X13942907Y-25493425D01*
X13493425Y-25942907D01*
X13351996Y-26154571D01*
X13362714Y-26119070D01*
X13574524Y-25720715D01*
X13859675Y-25371086D01*
X14207303Y-25083503D01*
X14604177Y-24868914D01*
X15035161Y-24735502D01*
X15515654Y-24685000D01*
X74466495Y-24685000D01*
X74949016Y-24732312D01*
G04 #@! TA.AperFunction,Conductor*
D21*
G36*
X74949016Y-24732312D02*
G01*
X75380930Y-24862714D01*
X75779285Y-25074524D01*
X76128914Y-25359675D01*
X76416497Y-25707303D01*
X76631086Y-26104177D01*
X76645547Y-26150894D01*
X76506575Y-25942907D01*
X76057093Y-25493425D01*
X75528558Y-25140270D01*
X74941281Y-24897012D01*
X74317832Y-24773000D01*
X73682168Y-24773000D01*
X73058719Y-24897012D01*
X72471442Y-25140270D01*
X71942907Y-25493425D01*
X71493425Y-25942907D01*
X71140270Y-26471442D01*
X70897012Y-27058719D01*
X70773000Y-27682168D01*
X70773000Y-28317832D01*
X70897012Y-28941281D01*
X71140270Y-29528558D01*
X71493425Y-30057093D01*
X71942907Y-30506575D01*
X72471442Y-30859730D01*
X73058719Y-31102988D01*
X73682168Y-31227000D01*
X74317832Y-31227000D01*
X74941281Y-31102988D01*
X75528558Y-30859730D01*
X76057093Y-30506575D01*
X76506575Y-30057093D01*
X76815000Y-29595501D01*
X76815000Y-31136775D01*
X76808115Y-31128385D01*
X76678275Y-31021829D01*
X76530142Y-30942650D01*
X76369408Y-30893892D01*
X76202250Y-30877428D01*
X75689750Y-30877428D01*
X75522592Y-30893892D01*
X75361858Y-30942650D01*
X75213725Y-31021829D01*
X75083885Y-31128385D01*
X74977329Y-31258225D01*
X74898150Y-31406358D01*
X74886729Y-31444007D01*
X74864889Y-31429414D01*
X74694729Y-31358932D01*
X74514089Y-31323000D01*
X74329911Y-31323000D01*
X74149271Y-31358932D01*
X73979111Y-31429414D01*
X73825972Y-31531738D01*
X73695738Y-31661972D01*
X73593414Y-31815111D01*
X73522932Y-31985271D01*
X73487000Y-32165911D01*
X73487000Y-32350089D01*
X73522932Y-32530729D01*
X73593414Y-32700889D01*
X73695738Y-32854028D01*
X73825972Y-32984262D01*
X73979111Y-33086586D01*
X74149271Y-33157068D01*
X74329911Y-33193000D01*
X74514089Y-33193000D01*
X74694729Y-33157068D01*
X74833115Y-33099747D01*
X74836000Y-33242250D01*
X74994750Y-33401000D01*
X75819000Y-33401000D01*
X75819000Y-33381000D01*
X76073000Y-33381000D01*
X76073000Y-33401000D01*
X76093000Y-33401000D01*
X76093000Y-33655000D01*
X76073000Y-33655000D01*
X76073000Y-35128000D01*
X76093000Y-35128000D01*
X76093000Y-35382000D01*
X76073000Y-35382000D01*
X76073000Y-35402000D01*
X75819000Y-35402000D01*
X75819000Y-35382000D01*
X75799000Y-35382000D01*
X75799000Y-35128000D01*
X75819000Y-35128000D01*
X75819000Y-33655000D01*
X74994750Y-33655000D01*
X74918902Y-33730848D01*
X74894262Y-33693972D01*
X74764028Y-33563738D01*
X74610889Y-33461414D01*
X74440729Y-33390932D01*
X74260089Y-33355000D01*
X74075911Y-33355000D01*
X73895271Y-33390932D01*
X73725111Y-33461414D01*
X73571972Y-33563738D01*
X73441738Y-33693972D01*
X73339414Y-33847111D01*
X73268932Y-34017271D01*
X73233000Y-34197911D01*
X73233000Y-34382089D01*
X73268932Y-34562729D01*
X73339414Y-34732889D01*
X73408000Y-34835535D01*
X73408000Y-35014678D01*
X73404324Y-35052000D01*
X73408000Y-35089322D01*
X73408000Y-35089333D01*
X73418997Y-35200986D01*
X73445235Y-35287479D01*
X73462454Y-35344246D01*
X73533026Y-35476276D01*
X73601738Y-35560001D01*
X73628000Y-35592001D01*
X73656998Y-35615799D01*
X74832928Y-36791730D01*
X74832928Y-37048750D01*
X74849392Y-37215908D01*
X74898150Y-37376642D01*
X74974840Y-37520118D01*
X74940463Y-37562006D01*
X74881498Y-37672320D01*
X74845188Y-37792018D01*
X74832928Y-37916500D01*
X74836000Y-38068250D01*
X74994750Y-38227000D01*
X75819000Y-38227000D01*
X75819000Y-38207000D01*
X76073000Y-38207000D01*
X76073000Y-38227000D01*
X76093000Y-38227000D01*
X76093000Y-38481000D01*
X76073000Y-38481000D01*
X76073000Y-38501000D01*
X75819000Y-38501000D01*
X75819000Y-38481000D01*
X74994750Y-38481000D01*
X74836000Y-38639750D01*
X74832928Y-38791500D01*
X74845188Y-38915982D01*
X74881498Y-39035680D01*
X74940463Y-39145994D01*
X74995100Y-39212570D01*
X74977329Y-39234225D01*
X74898150Y-39382358D01*
X74849392Y-39543092D01*
X74832928Y-39710250D01*
X74832928Y-39976289D01*
X74803026Y-40012724D01*
X74732454Y-40144754D01*
X74714608Y-40203588D01*
X74692798Y-40275489D01*
X74688998Y-40288015D01*
X74674324Y-40437000D01*
X74678001Y-40474332D01*
X74678001Y-40856464D01*
X74609414Y-40959111D01*
X74538932Y-41129271D01*
X74503000Y-41309911D01*
X74503000Y-41494089D01*
X74538932Y-41674729D01*
X74609414Y-41844889D01*
X74711738Y-41998028D01*
X74841972Y-42128262D01*
X74995111Y-42230586D01*
X75165271Y-42301068D01*
X75345911Y-42337000D01*
X75530089Y-42337000D01*
X75710729Y-42301068D01*
X75880889Y-42230586D01*
X76034028Y-42128262D01*
X76164262Y-41998028D01*
X76266586Y-41844889D01*
X76337068Y-41674729D01*
X76373000Y-41494089D01*
X76373000Y-41309911D01*
X76337068Y-41129271D01*
X76282156Y-40996702D01*
X76369408Y-40988108D01*
X76530142Y-40939350D01*
X76678275Y-40860171D01*
X76808115Y-40753615D01*
X76815001Y-40745225D01*
X76815001Y-49404500D01*
X76506575Y-48942907D01*
X76057093Y-48493425D01*
X75528558Y-48140270D01*
X74941281Y-47897012D01*
X74317832Y-47773000D01*
X73682168Y-47773000D01*
X73058719Y-47897012D01*
X72471442Y-48140270D01*
X71942907Y-48493425D01*
X71493425Y-48942907D01*
X71140270Y-49471442D01*
X70993000Y-49826983D01*
X70993000Y-45654764D01*
X71012038Y-45677962D01*
X71146614Y-45788405D01*
X71300150Y-45870472D01*
X71466746Y-45921008D01*
X71640000Y-45938072D01*
X73140000Y-45938072D01*
X73313254Y-45921008D01*
X73479850Y-45870472D01*
X73633386Y-45788405D01*
X73767962Y-45677962D01*
X73878405Y-45543386D01*
X73960472Y-45389850D01*
X74011008Y-45223254D01*
X74028072Y-45050000D01*
X74028072Y-43850000D01*
X74011008Y-43676746D01*
X73960472Y-43510150D01*
X73878405Y-43356614D01*
X73767962Y-43222038D01*
X73633386Y-43111595D01*
X73531407Y-43057086D01*
X73531795Y-43056802D01*
X73728664Y-42842046D01*
X73879854Y-42593009D01*
X73979554Y-42319261D01*
X73981476Y-42306890D01*
X73860155Y-42077000D01*
X72517000Y-42077000D01*
X72517000Y-42097000D01*
X72263000Y-42097000D01*
X72263000Y-42077000D01*
X72243000Y-42077000D01*
X72243000Y-41823000D01*
X72263000Y-41823000D01*
X72263000Y-40622768D01*
X72517000Y-40622768D01*
X72517000Y-41823000D01*
X73860155Y-41823000D01*
X73981476Y-41593110D01*
X73979554Y-41580739D01*
X73879854Y-41306991D01*
X73728664Y-41057954D01*
X73531795Y-40843198D01*
X73296812Y-40670975D01*
X73032745Y-40547904D01*
X72749742Y-40478715D01*
X72517000Y-40622768D01*
X72263000Y-40622768D01*
X72030258Y-40478715D01*
X71747255Y-40547904D01*
X71483188Y-40670975D01*
X71248205Y-40843198D01*
X71051336Y-41057954D01*
X70993000Y-41154044D01*
X70993000Y-36068000D01*
X70990560Y-36043224D01*
X70983333Y-36019399D01*
X70971597Y-35997443D01*
X70955803Y-35978197D01*
X70936557Y-35962403D01*
X70914601Y-35950667D01*
X70890776Y-35943440D01*
X70866000Y-35941000D01*
X67749802Y-35941000D01*
X68420730Y-35270072D01*
X69284000Y-35270072D01*
X69408482Y-35257812D01*
X69528180Y-35221502D01*
X69638494Y-35162537D01*
X69735185Y-35083185D01*
X69814537Y-34986494D01*
X69873502Y-34876180D01*
X69909812Y-34756482D01*
X69922072Y-34632000D01*
X69922072Y-32932000D01*
X69909812Y-32807518D01*
X69873502Y-32687820D01*
X69814537Y-32577506D01*
X69735185Y-32480815D01*
X69638494Y-32401463D01*
X69528180Y-32342498D01*
X69408482Y-32306188D01*
X69284000Y-32293928D01*
X68384000Y-32293928D01*
X68259518Y-32306188D01*
X68139820Y-32342498D01*
X68029506Y-32401463D01*
X67932815Y-32480815D01*
X67853463Y-32577506D01*
X67794498Y-32687820D01*
X67758188Y-32807518D01*
X67745928Y-32932000D01*
X67745928Y-33795270D01*
X65600198Y-35941000D01*
X60352000Y-35941000D01*
X60352000Y-35186320D01*
X60396494Y-35162537D01*
X60493185Y-35083185D01*
X60572537Y-34986494D01*
X60631502Y-34876180D01*
X60667812Y-34756482D01*
X60680072Y-34632000D01*
X61903928Y-34632000D01*
X61916188Y-34756482D01*
X61952498Y-34876180D01*
X62011463Y-34986494D01*
X62090815Y-35083185D01*
X62187506Y-35162537D01*
X62297820Y-35221502D01*
X62417518Y-35257812D01*
X62542000Y-35270072D01*
X62706250Y-35267000D01*
X62865000Y-35108250D01*
X62865000Y-33909000D01*
X63119000Y-33909000D01*
X63119000Y-35108250D01*
X63277750Y-35267000D01*
X63442000Y-35270072D01*
X63566482Y-35257812D01*
X63686180Y-35221502D01*
X63796494Y-35162537D01*
X63893185Y-35083185D01*
X63972537Y-34986494D01*
X64031502Y-34876180D01*
X64067812Y-34756482D01*
X64080072Y-34632000D01*
X64345928Y-34632000D01*
X64358188Y-34756482D01*
X64394498Y-34876180D01*
X64453463Y-34986494D01*
X64532815Y-35083185D01*
X64629506Y-35162537D01*
X64739820Y-35221502D01*
X64859518Y-35257812D01*
X64984000Y-35270072D01*
X65148250Y-35267000D01*
X65307000Y-35108250D01*
X65307000Y-33909000D01*
X65561000Y-33909000D01*
X65561000Y-35108250D01*
X65719750Y-35267000D01*
X65884000Y-35270072D01*
X66008482Y-35257812D01*
X66128180Y-35221502D01*
X66238494Y-35162537D01*
X66335185Y-35083185D01*
X66414537Y-34986494D01*
X66473502Y-34876180D01*
X66509812Y-34756482D01*
X66522072Y-34632000D01*
X66519000Y-34067750D01*
X66360250Y-33909000D01*
X65561000Y-33909000D01*
X65307000Y-33909000D01*
X64507750Y-33909000D01*
X64349000Y-34067750D01*
X64345928Y-34632000D01*
X64080072Y-34632000D01*
X64077000Y-34067750D01*
X63918250Y-33909000D01*
X63119000Y-33909000D01*
X62865000Y-33909000D01*
X62065750Y-33909000D01*
X61907000Y-34067750D01*
X61903928Y-34632000D01*
X60680072Y-34632000D01*
X60680072Y-32932000D01*
X61903928Y-32932000D01*
X61907000Y-33496250D01*
X62065750Y-33655000D01*
X62865000Y-33655000D01*
X62865000Y-32455750D01*
X63119000Y-32455750D01*
X63119000Y-33655000D01*
X63918250Y-33655000D01*
X64077000Y-33496250D01*
X64080072Y-32932000D01*
X64345928Y-32932000D01*
X64349000Y-33496250D01*
X64507750Y-33655000D01*
X65307000Y-33655000D01*
X65307000Y-32455750D01*
X65561000Y-32455750D01*
X65561000Y-33655000D01*
X66360250Y-33655000D01*
X66519000Y-33496250D01*
X66522072Y-32932000D01*
X66509812Y-32807518D01*
X66473502Y-32687820D01*
X66414537Y-32577506D01*
X66335185Y-32480815D01*
X66238494Y-32401463D01*
X66128180Y-32342498D01*
X66008482Y-32306188D01*
X65884000Y-32293928D01*
X65719750Y-32297000D01*
X65561000Y-32455750D01*
X65307000Y-32455750D01*
X65148250Y-32297000D01*
X64984000Y-32293928D01*
X64859518Y-32306188D01*
X64739820Y-32342498D01*
X64629506Y-32401463D01*
X64532815Y-32480815D01*
X64453463Y-32577506D01*
X64394498Y-32687820D01*
X64358188Y-32807518D01*
X64345928Y-32932000D01*
X64080072Y-32932000D01*
X64067812Y-32807518D01*
X64031502Y-32687820D01*
X63972537Y-32577506D01*
X63893185Y-32480815D01*
X63796494Y-32401463D01*
X63686180Y-32342498D01*
X63566482Y-32306188D01*
X63442000Y-32293928D01*
X63277750Y-32297000D01*
X63119000Y-32455750D01*
X62865000Y-32455750D01*
X62706250Y-32297000D01*
X62542000Y-32293928D01*
X62417518Y-32306188D01*
X62297820Y-32342498D01*
X62187506Y-32401463D01*
X62090815Y-32480815D01*
X62011463Y-32577506D01*
X61952498Y-32687820D01*
X61916188Y-32807518D01*
X61903928Y-32932000D01*
X60680072Y-32932000D01*
X60667812Y-32807518D01*
X60631502Y-32687820D01*
X60572537Y-32577506D01*
X60493185Y-32480815D01*
X60396494Y-32401463D01*
X60286180Y-32342498D01*
X60166482Y-32306188D01*
X60042000Y-32293928D01*
X59142000Y-32293928D01*
X59017518Y-32306188D01*
X58897820Y-32342498D01*
X58787506Y-32401463D01*
X58690815Y-32480815D01*
X58611463Y-32577506D01*
X58552498Y-32687820D01*
X58516188Y-32807518D01*
X58503928Y-32932000D01*
X58503928Y-33671938D01*
X58438729Y-33644932D01*
X58258089Y-33609000D01*
X58073911Y-33609000D01*
X57893271Y-33644932D01*
X57723111Y-33715414D01*
X57569972Y-33817738D01*
X57439738Y-33947972D01*
X57337414Y-34101111D01*
X57266932Y-34271271D01*
X57231000Y-34451911D01*
X57231000Y-34636089D01*
X57241977Y-34691272D01*
X57168729Y-34660932D01*
X56988089Y-34625000D01*
X56803911Y-34625000D01*
X56623271Y-34660932D01*
X56453111Y-34731414D01*
X56299972Y-34833738D01*
X56169738Y-34963972D01*
X56067414Y-35117111D01*
X55996932Y-35287271D01*
X55972847Y-35408351D01*
X55308271Y-36072928D01*
X55128500Y-36072928D01*
X55004018Y-36085188D01*
X54893500Y-36118713D01*
X54782982Y-36085188D01*
X54658500Y-36072928D01*
X53858500Y-36072928D01*
X53734018Y-36085188D01*
X53623500Y-36118713D01*
X53512982Y-36085188D01*
X53388500Y-36072928D01*
X52588500Y-36072928D01*
X52464018Y-36085188D01*
X52353500Y-36118713D01*
X52242982Y-36085188D01*
X52118500Y-36072928D01*
X51318500Y-36072928D01*
X51194018Y-36085188D01*
X51083500Y-36118713D01*
X50972982Y-36085188D01*
X50848500Y-36072928D01*
X50048500Y-36072928D01*
X49924018Y-36085188D01*
X49843142Y-36109721D01*
X49813474Y-36054217D01*
X49742299Y-35967491D01*
X49718501Y-35938493D01*
X49689503Y-35914695D01*
X48929159Y-35154351D01*
X48905074Y-35033271D01*
X48834592Y-34863111D01*
X48732268Y-34709972D01*
X48602034Y-34579738D01*
X48448895Y-34477414D01*
X48278735Y-34406932D01*
X48098095Y-34371000D01*
X47913917Y-34371000D01*
X47876702Y-34378403D01*
X47818588Y-34238101D01*
X47724111Y-34096707D01*
X47780301Y-33961052D01*
X47816233Y-33780412D01*
X47816233Y-33743000D01*
X47898260Y-33743000D01*
X48185158Y-33685932D01*
X48455411Y-33573990D01*
X48698632Y-33411475D01*
X48905475Y-33204632D01*
X49022000Y-33030240D01*
X49138525Y-33204632D01*
X49345368Y-33411475D01*
X49588589Y-33573990D01*
X49858842Y-33685932D01*
X50145740Y-33743000D01*
X50438260Y-33743000D01*
X50725158Y-33685932D01*
X50995411Y-33573990D01*
X51238632Y-33411475D01*
X51445475Y-33204632D01*
X51562000Y-33030240D01*
X51678525Y-33204632D01*
X51885368Y-33411475D01*
X52128589Y-33573990D01*
X52398842Y-33685932D01*
X52685740Y-33743000D01*
X52978260Y-33743000D01*
X53265158Y-33685932D01*
X53535411Y-33573990D01*
X53778632Y-33411475D01*
X53985475Y-33204632D01*
X54107195Y-33022466D01*
X54176822Y-33139355D01*
X54371731Y-33355588D01*
X54605080Y-33529641D01*
X54867901Y-33654825D01*
X55015110Y-33699476D01*
X55245000Y-33578155D01*
X55245000Y-32385000D01*
X55499000Y-32385000D01*
X55499000Y-33578155D01*
X55728890Y-33699476D01*
X55876099Y-33654825D01*
X56138920Y-33529641D01*
X56372269Y-33355588D01*
X56567178Y-33139355D01*
X56716157Y-32889252D01*
X56813481Y-32614891D01*
X56692814Y-32385000D01*
X55499000Y-32385000D01*
X55245000Y-32385000D01*
X55225000Y-32385000D01*
X55225000Y-32131000D01*
X55245000Y-32131000D01*
X55245000Y-30937845D01*
X55499000Y-30937845D01*
X55499000Y-32131000D01*
X56692814Y-32131000D01*
X56813481Y-31901109D01*
X56716157Y-31626748D01*
X56567178Y-31376645D01*
X56372269Y-31160412D01*
X56138920Y-30986359D01*
X55876099Y-30861175D01*
X55728890Y-30816524D01*
X55499000Y-30937845D01*
X55245000Y-30937845D01*
X55015110Y-30816524D01*
X54867901Y-30861175D01*
X54605080Y-30986359D01*
X54371731Y-31160412D01*
X54176822Y-31376645D01*
X54107195Y-31493534D01*
X53985475Y-31311368D01*
X53778632Y-31104525D01*
X53535411Y-30942010D01*
X53265158Y-30830068D01*
X52978260Y-30773000D01*
X52685740Y-30773000D01*
X52398842Y-30830068D01*
X52128589Y-30942010D01*
X51885368Y-31104525D01*
X51678525Y-31311368D01*
X51562000Y-31485760D01*
X51445475Y-31311368D01*
X51238632Y-31104525D01*
X50995411Y-30942010D01*
X50725158Y-30830068D01*
X50438260Y-30773000D01*
X50145740Y-30773000D01*
X49858842Y-30830068D01*
X49588589Y-30942010D01*
X49345368Y-31104525D01*
X49138525Y-31311368D01*
X49022000Y-31485760D01*
X48905475Y-31311368D01*
X48698632Y-31104525D01*
X48455411Y-30942010D01*
X48185158Y-30830068D01*
X47898260Y-30773000D01*
X47605740Y-30773000D01*
X47318842Y-30830068D01*
X47048589Y-30942010D01*
X46805368Y-31104525D01*
X46598525Y-31311368D01*
X46482000Y-31485760D01*
X46365475Y-31311368D01*
X46158632Y-31104525D01*
X45915411Y-30942010D01*
X45645158Y-30830068D01*
X45358260Y-30773000D01*
X45065740Y-30773000D01*
X44778842Y-30830068D01*
X44508589Y-30942010D01*
X44265368Y-31104525D01*
X44133513Y-31236380D01*
X44111502Y-31163820D01*
X44052537Y-31053506D01*
X43973185Y-30956815D01*
X43876494Y-30877463D01*
X43766180Y-30818498D01*
X43646482Y-30782188D01*
X43522000Y-30769928D01*
X41822000Y-30769928D01*
X41697518Y-30782188D01*
X41577820Y-30818498D01*
X41467506Y-30877463D01*
X41370815Y-30956815D01*
X41291463Y-31053506D01*
X41232498Y-31163820D01*
X41196188Y-31283518D01*
X41183928Y-31408000D01*
X41183928Y-32494494D01*
X41136441Y-32541981D01*
X41102674Y-32569693D01*
X41074961Y-32603461D01*
X41074958Y-32603464D01*
X40992080Y-32704451D01*
X40909902Y-32858197D01*
X40859295Y-33025020D01*
X40842209Y-33198510D01*
X40846491Y-33241989D01*
X40846490Y-34228990D01*
X40139515Y-34228990D01*
X40096046Y-34224709D01*
X40052577Y-34228990D01*
X40052570Y-34228990D01*
X39938732Y-34240202D01*
X39922556Y-34241795D01*
X39889730Y-34251753D01*
X39755734Y-34292401D01*
X39704111Y-34319994D01*
X39601987Y-34374579D01*
X39501000Y-34457458D01*
X39500998Y-34457460D01*
X39467230Y-34485173D01*
X39439517Y-34518941D01*
X38278950Y-35679510D01*
X38245183Y-35707222D01*
X38217470Y-35740990D01*
X38217467Y-35740993D01*
X38134588Y-35841981D01*
X38052411Y-35995726D01*
X38001804Y-36162550D01*
X37984718Y-36336039D01*
X37989000Y-36379515D01*
X37988999Y-39338530D01*
X37984718Y-39381999D01*
X37988999Y-39425468D01*
X37988999Y-39425475D01*
X38001804Y-39555488D01*
X38052410Y-39722311D01*
X38134588Y-39876057D01*
X38245182Y-40010816D01*
X38278955Y-40038533D01*
X38527345Y-40286923D01*
X38541414Y-40320889D01*
X38643738Y-40474028D01*
X38773972Y-40604262D01*
X38927111Y-40706586D01*
X39097271Y-40777068D01*
X39277911Y-40813000D01*
X39462089Y-40813000D01*
X39642729Y-40777068D01*
X39812889Y-40706586D01*
X39966028Y-40604262D01*
X40096262Y-40474028D01*
X40198586Y-40320889D01*
X40269068Y-40150729D01*
X40305000Y-39970089D01*
X40305000Y-39785911D01*
X40269068Y-39605271D01*
X40198586Y-39435111D01*
X40096262Y-39281972D01*
X39966028Y-39151738D01*
X39812889Y-39049414D01*
X39778923Y-39035345D01*
X39758999Y-39015421D01*
X39758999Y-38211000D01*
X40520428Y-38211000D01*
X40532688Y-38335482D01*
X40568998Y-38455180D01*
X40627963Y-38565494D01*
X40707315Y-38662185D01*
X40804006Y-38741537D01*
X40914320Y-38800502D01*
X41034018Y-38836812D01*
X41158500Y-38849072D01*
X41272750Y-38846000D01*
X41431500Y-38687250D01*
X41431500Y-37588000D01*
X40682250Y-37588000D01*
X40523500Y-37746750D01*
X40520428Y-38211000D01*
X39758999Y-38211000D01*
X39758999Y-36702617D01*
X40462626Y-35998990D01*
X41364912Y-35998990D01*
X41441922Y-36076000D01*
X41431498Y-36076000D01*
X41431498Y-36234748D01*
X41272750Y-36076000D01*
X41158500Y-36072928D01*
X41034018Y-36085188D01*
X40914320Y-36121498D01*
X40804006Y-36180463D01*
X40707315Y-36259815D01*
X40627963Y-36356506D01*
X40568998Y-36466820D01*
X40532688Y-36586518D01*
X40520428Y-36711000D01*
X40523500Y-37175250D01*
X40682250Y-37334000D01*
X41431500Y-37334000D01*
X41431500Y-37314000D01*
X41685500Y-37314000D01*
X41685500Y-37334000D01*
X41705500Y-37334000D01*
X41705500Y-37588000D01*
X41685500Y-37588000D01*
X41685500Y-38687250D01*
X41844250Y-38846000D01*
X41958500Y-38849072D01*
X42082982Y-38836812D01*
X42193500Y-38803287D01*
X42304018Y-38836812D01*
X42428500Y-38849072D01*
X43228500Y-38849072D01*
X43352982Y-38836812D01*
X43463500Y-38803287D01*
X43574018Y-38836812D01*
X43698500Y-38849072D01*
X44498500Y-38849072D01*
X44622982Y-38836812D01*
X44733500Y-38803287D01*
X44844018Y-38836812D01*
X44968500Y-38849072D01*
X45768500Y-38849072D01*
X45892982Y-38836812D01*
X45954549Y-38818136D01*
X46009683Y-38885317D01*
X46043456Y-38913034D01*
X47662618Y-40532197D01*
X47563111Y-40573414D01*
X47409972Y-40675738D01*
X47279738Y-40805972D01*
X47177414Y-40959111D01*
X47106932Y-41129271D01*
X47071000Y-41309911D01*
X47071000Y-41494089D01*
X47106932Y-41674729D01*
X47177414Y-41844889D01*
X47279738Y-41998028D01*
X47409972Y-42128262D01*
X47563111Y-42230586D01*
X47733271Y-42301068D01*
X47854351Y-42325153D01*
X47950200Y-42421002D01*
X47973999Y-42450001D01*
X48089724Y-42544974D01*
X48221753Y-42615546D01*
X48365014Y-42659003D01*
X48476667Y-42670000D01*
X48476676Y-42670000D01*
X48513999Y-42673676D01*
X48551322Y-42670000D01*
X58128465Y-42670000D01*
X58231111Y-42738586D01*
X58401271Y-42809068D01*
X58581911Y-42845000D01*
X58696199Y-42845000D01*
X53650198Y-47891001D01*
X46473321Y-47891001D01*
X46435998Y-47887325D01*
X46398676Y-47891001D01*
X46398666Y-47891001D01*
X46287013Y-47901998D01*
X46143752Y-47945455D01*
X46011722Y-48016027D01*
X45928082Y-48084669D01*
X45895998Y-48111000D01*
X45872200Y-48139998D01*
X42317503Y-51694696D01*
X42288499Y-51718499D01*
X42234594Y-51784183D01*
X42193526Y-51834224D01*
X42125747Y-51961029D01*
X42122954Y-51966254D01*
X42114326Y-51994696D01*
X42082982Y-51985188D01*
X41958500Y-51972928D01*
X41158500Y-51972928D01*
X41034018Y-51985188D01*
X40914320Y-52021498D01*
X40804006Y-52080463D01*
X40707315Y-52159815D01*
X40627963Y-52256506D01*
X40568998Y-52366820D01*
X40532688Y-52486518D01*
X40520428Y-52611000D01*
X40520428Y-53815000D01*
X36990882Y-53815000D01*
X36998072Y-53742000D01*
X36998072Y-52305506D01*
X38634579Y-50669000D01*
X39063308Y-50669000D01*
X39097271Y-50683068D01*
X39277911Y-50719000D01*
X39462089Y-50719000D01*
X39642729Y-50683068D01*
X39812889Y-50612586D01*
X39966028Y-50510262D01*
X40096262Y-50380028D01*
X40198586Y-50226889D01*
X40269068Y-50056729D01*
X40305000Y-49876089D01*
X40305000Y-49691911D01*
X40269068Y-49511271D01*
X40198586Y-49341111D01*
X40096262Y-49187972D01*
X39966028Y-49057738D01*
X39812889Y-48955414D01*
X39642729Y-48884932D01*
X39462089Y-48849000D01*
X39277911Y-48849000D01*
X39097271Y-48884932D01*
X39063308Y-48899000D01*
X38311465Y-48899000D01*
X38267999Y-48894719D01*
X38224533Y-48899000D01*
X38224523Y-48899000D01*
X38094510Y-48911805D01*
X37927687Y-48962411D01*
X37773941Y-49044589D01*
X37773939Y-49044590D01*
X37773940Y-49044590D01*
X37672953Y-49127468D01*
X37672951Y-49127470D01*
X37639183Y-49155183D01*
X37611470Y-49188951D01*
X36932577Y-49867845D01*
X36949502Y-49836180D01*
X36985812Y-49716482D01*
X36998072Y-49592000D01*
X36995000Y-48377750D01*
X36836250Y-48219000D01*
X35687000Y-48219000D01*
X35687000Y-50068250D01*
X35845750Y-50227000D01*
X36360000Y-50230072D01*
X36484482Y-50217812D01*
X36604180Y-50181502D01*
X36635845Y-50164577D01*
X36395408Y-50405013D01*
X36283254Y-50370992D01*
X36110000Y-50353928D01*
X35010000Y-50353928D01*
X34836746Y-50370992D01*
X34670150Y-50421528D01*
X34516614Y-50503595D01*
X34382038Y-50614038D01*
X34271595Y-50748614D01*
X34189528Y-50902150D01*
X34138992Y-51068746D01*
X34121928Y-51242000D01*
X34121928Y-53742000D01*
X34129118Y-53815000D01*
X17595501Y-53815000D01*
X18057093Y-53506575D01*
X18506575Y-53057093D01*
X18859730Y-52528558D01*
X19102988Y-51941281D01*
X19227000Y-51317832D01*
X19227000Y-50682168D01*
X19102988Y-50058719D01*
X18859730Y-49471442D01*
X18506575Y-48942907D01*
X18057093Y-48493425D01*
X17528558Y-48140270D01*
X16941281Y-47897012D01*
X16317832Y-47773000D01*
X15682168Y-47773000D01*
X15058719Y-47897012D01*
X14471442Y-48140270D01*
X13942907Y-48493425D01*
X13493425Y-48942907D01*
X13185000Y-49404499D01*
X13185000Y-29595501D01*
X13493425Y-30057093D01*
X13942907Y-30506575D01*
X14471442Y-30859730D01*
X15058719Y-31102988D01*
X15682168Y-31227000D01*
X15777420Y-31227000D01*
X15406951Y-31597469D01*
X15373184Y-31625181D01*
X15345471Y-31658949D01*
X15345468Y-31658952D01*
X15262590Y-31759939D01*
X15180412Y-31913685D01*
X15129805Y-32080508D01*
X15112719Y-32253998D01*
X15117001Y-32297477D01*
X15117000Y-40058531D01*
X15112719Y-40102000D01*
X15117000Y-40145469D01*
X15117000Y-40145476D01*
X15126016Y-40237014D01*
X15129391Y-40271281D01*
X15129805Y-40275489D01*
X15180411Y-40442312D01*
X15262589Y-40596058D01*
X15373183Y-40730817D01*
X15406956Y-40758534D01*
X16456104Y-41807682D01*
X16377463Y-41903506D01*
X16318498Y-42013820D01*
X16282188Y-42133518D01*
X16269928Y-42258000D01*
X16269928Y-45058000D01*
X16282188Y-45182482D01*
X16318498Y-45302180D01*
X16377463Y-45412494D01*
X16456815Y-45509185D01*
X16553506Y-45588537D01*
X16663820Y-45647502D01*
X16783518Y-45683812D01*
X16908000Y-45696072D01*
X19990941Y-45696072D01*
X21327001Y-47032133D01*
X21327001Y-47641928D01*
X20512000Y-47641928D01*
X20338746Y-47658992D01*
X20172150Y-47709528D01*
X20018614Y-47791595D01*
X19884038Y-47902038D01*
X19773595Y-48036614D01*
X19691528Y-48190150D01*
X19640992Y-48356746D01*
X19623928Y-48530000D01*
X19623928Y-50530000D01*
X19640992Y-50703254D01*
X19691528Y-50869850D01*
X19773595Y-51023386D01*
X19884038Y-51157962D01*
X20018614Y-51268405D01*
X20172150Y-51350472D01*
X20338746Y-51401008D01*
X20512000Y-51418072D01*
X24412000Y-51418072D01*
X24585254Y-51401008D01*
X24751850Y-51350472D01*
X24905386Y-51268405D01*
X25039962Y-51157962D01*
X25150405Y-51023386D01*
X25232472Y-50869850D01*
X25259727Y-50780000D01*
X27023928Y-50780000D01*
X27036188Y-50904482D01*
X27072498Y-51024180D01*
X27131463Y-51134494D01*
X27210815Y-51231185D01*
X27307506Y-51310537D01*
X27417820Y-51369502D01*
X27537518Y-51405812D01*
X27662000Y-51418072D01*
X29576250Y-51415000D01*
X29735000Y-51256250D01*
X29735000Y-49657000D01*
X29989000Y-49657000D01*
X29989000Y-51256250D01*
X30147750Y-51415000D01*
X32062000Y-51418072D01*
X32186482Y-51405812D01*
X32306180Y-51369502D01*
X32416494Y-51310537D01*
X32513185Y-51231185D01*
X32592537Y-51134494D01*
X32651502Y-51024180D01*
X32687812Y-50904482D01*
X32700072Y-50780000D01*
X32697000Y-49815750D01*
X32538250Y-49657000D01*
X29989000Y-49657000D01*
X29735000Y-49657000D01*
X27185750Y-49657000D01*
X27027000Y-49815750D01*
X27023928Y-50780000D01*
X25259727Y-50780000D01*
X25283008Y-50703254D01*
X25300072Y-50530000D01*
X25300072Y-49592000D01*
X34121928Y-49592000D01*
X34134188Y-49716482D01*
X34170498Y-49836180D01*
X34229463Y-49946494D01*
X34308815Y-50043185D01*
X34405506Y-50122537D01*
X34515820Y-50181502D01*
X34635518Y-50217812D01*
X34760000Y-50230072D01*
X35274250Y-50227000D01*
X35433000Y-50068250D01*
X35433000Y-48219000D01*
X34283750Y-48219000D01*
X34125000Y-48377750D01*
X34121928Y-49592000D01*
X25300072Y-49592000D01*
X25300072Y-48530000D01*
X25283008Y-48356746D01*
X25259728Y-48280000D01*
X27023928Y-48280000D01*
X27027000Y-49244250D01*
X27185750Y-49403000D01*
X29735000Y-49403000D01*
X29735000Y-47803750D01*
X29989000Y-47803750D01*
X29989000Y-49403000D01*
X32538250Y-49403000D01*
X32697000Y-49244250D01*
X32700072Y-48280000D01*
X32687812Y-48155518D01*
X32651502Y-48035820D01*
X32592537Y-47925506D01*
X32513185Y-47828815D01*
X32416494Y-47749463D01*
X32306180Y-47690498D01*
X32186482Y-47654188D01*
X32062000Y-47641928D01*
X30147750Y-47645000D01*
X29989000Y-47803750D01*
X29735000Y-47803750D01*
X29576250Y-47645000D01*
X27662000Y-47641928D01*
X27537518Y-47654188D01*
X27417820Y-47690498D01*
X27307506Y-47749463D01*
X27210815Y-47828815D01*
X27131463Y-47925506D01*
X27072498Y-48035820D01*
X27036188Y-48155518D01*
X27023928Y-48280000D01*
X25259728Y-48280000D01*
X25232472Y-48190150D01*
X25150405Y-48036614D01*
X25039962Y-47902038D01*
X24905386Y-47791595D01*
X24751850Y-47709528D01*
X24585254Y-47658992D01*
X24412000Y-47641928D01*
X23597000Y-47641928D01*
X23597000Y-46617743D01*
X23599535Y-46592000D01*
X34121928Y-46592000D01*
X34125000Y-47806250D01*
X34283750Y-47965000D01*
X35433000Y-47965000D01*
X35433000Y-46115750D01*
X35687000Y-46115750D01*
X35687000Y-47965000D01*
X36836250Y-47965000D01*
X36995000Y-47806250D01*
X36998072Y-46592000D01*
X36985812Y-46467518D01*
X36949502Y-46347820D01*
X36890537Y-46237506D01*
X36811185Y-46140815D01*
X36714494Y-46061463D01*
X36604180Y-46002498D01*
X36484482Y-45966188D01*
X36360000Y-45953928D01*
X35845750Y-45957000D01*
X35687000Y-46115750D01*
X35433000Y-46115750D01*
X35274250Y-45957000D01*
X34760000Y-45953928D01*
X34635518Y-45966188D01*
X34515820Y-46002498D01*
X34405506Y-46061463D01*
X34308815Y-46140815D01*
X34229463Y-46237506D01*
X34170498Y-46347820D01*
X34134188Y-46467518D01*
X34121928Y-46592000D01*
X23599535Y-46592000D01*
X23602490Y-46561999D01*
X23597000Y-46506255D01*
X23597000Y-46506248D01*
X23580577Y-46339501D01*
X23515676Y-46125553D01*
X23410284Y-45928377D01*
X23268449Y-45755551D01*
X23225141Y-45720009D01*
X22799785Y-45294653D01*
X22833812Y-45182482D01*
X22846072Y-45058000D01*
X22846072Y-42258000D01*
X22833812Y-42133518D01*
X22797502Y-42013820D01*
X22738537Y-41903506D01*
X22659185Y-41806815D01*
X22591700Y-41751432D01*
X23916132Y-40427000D01*
X27493752Y-40427000D01*
X27660499Y-40410577D01*
X27874447Y-40345676D01*
X28071623Y-40240284D01*
X28244449Y-40098449D01*
X28386284Y-39925623D01*
X28491676Y-39728447D01*
X28556577Y-39514499D01*
X28578491Y-39292000D01*
X28556577Y-39069501D01*
X28491676Y-38855553D01*
X28386284Y-38658377D01*
X28244449Y-38485551D01*
X28071623Y-38343716D01*
X27874447Y-38238324D01*
X27660499Y-38173423D01*
X27493752Y-38157000D01*
X23501741Y-38157000D01*
X23445999Y-38151510D01*
X23390257Y-38157000D01*
X23390248Y-38157000D01*
X23223501Y-38173423D01*
X23009553Y-38238324D01*
X22812377Y-38343716D01*
X22639551Y-38485551D01*
X22604009Y-38528859D01*
X19512941Y-41619928D01*
X18771507Y-41619928D01*
X16887000Y-39735422D01*
X16887000Y-35594004D01*
X16908000Y-35596072D01*
X22208000Y-35596072D01*
X22332482Y-35583812D01*
X22452180Y-35547502D01*
X22562494Y-35488537D01*
X22659185Y-35409185D01*
X22738537Y-35312494D01*
X22797502Y-35202180D01*
X22833812Y-35082482D01*
X22846072Y-34958000D01*
X22846072Y-34693000D01*
X29124249Y-34693000D01*
X29180000Y-34698491D01*
X29235751Y-34693000D01*
X29235752Y-34693000D01*
X29402499Y-34676577D01*
X29595001Y-34618182D01*
X29595000Y-42813421D01*
X29055077Y-43353345D01*
X29021111Y-43367414D01*
X28867972Y-43469738D01*
X28737738Y-43599972D01*
X28635414Y-43753111D01*
X28564932Y-43923271D01*
X28529000Y-44103911D01*
X28529000Y-44288089D01*
X28564932Y-44468729D01*
X28635414Y-44638889D01*
X28737738Y-44792028D01*
X28867972Y-44922262D01*
X29021111Y-45024586D01*
X29191271Y-45095068D01*
X29371911Y-45131000D01*
X29556089Y-45131000D01*
X29736729Y-45095068D01*
X29906889Y-45024586D01*
X30060028Y-44922262D01*
X30190262Y-44792028D01*
X30292586Y-44638889D01*
X30306655Y-44604923D01*
X30538578Y-44373000D01*
X31385928Y-44373000D01*
X31398188Y-44497482D01*
X31434498Y-44617180D01*
X31493463Y-44727494D01*
X31572815Y-44824185D01*
X31669506Y-44903537D01*
X31779820Y-44962502D01*
X31899518Y-44998812D01*
X32024000Y-45011072D01*
X32988250Y-45008000D01*
X33147000Y-44849250D01*
X33147000Y-42300000D01*
X33401000Y-42300000D01*
X33401000Y-44849250D01*
X33559750Y-45008000D01*
X34524000Y-45011072D01*
X34648482Y-44998812D01*
X34768180Y-44962502D01*
X34878494Y-44903537D01*
X34975185Y-44824185D01*
X35054537Y-44727494D01*
X35113502Y-44617180D01*
X35149812Y-44497482D01*
X35162072Y-44373000D01*
X35159000Y-42458750D01*
X35000250Y-42300000D01*
X33401000Y-42300000D01*
X33147000Y-42300000D01*
X31547750Y-42300000D01*
X31389000Y-42458750D01*
X31385928Y-44373000D01*
X30538578Y-44373000D01*
X31075050Y-43836529D01*
X31108817Y-43808817D01*
X31157015Y-43750089D01*
X31219410Y-43674060D01*
X31219411Y-43674059D01*
X31301589Y-43520313D01*
X31347971Y-43367414D01*
X31352195Y-43353491D01*
X31357765Y-43296932D01*
X31365000Y-43223477D01*
X31365000Y-43223469D01*
X31369281Y-43180000D01*
X31365000Y-43136531D01*
X31365000Y-39973000D01*
X31385928Y-39973000D01*
X31389000Y-41887250D01*
X31547750Y-42046000D01*
X33147000Y-42046000D01*
X33147000Y-39496750D01*
X33401000Y-39496750D01*
X33401000Y-42046000D01*
X35000250Y-42046000D01*
X35159000Y-41887250D01*
X35162072Y-39973000D01*
X35149812Y-39848518D01*
X35113502Y-39728820D01*
X35054537Y-39618506D01*
X34975185Y-39521815D01*
X34878494Y-39442463D01*
X34768180Y-39383498D01*
X34648482Y-39347188D01*
X34524000Y-39334928D01*
X33559750Y-39338000D01*
X33401000Y-39496750D01*
X33147000Y-39496750D01*
X32988250Y-39338000D01*
X32024000Y-39334928D01*
X31899518Y-39347188D01*
X31779820Y-39383498D01*
X31669506Y-39442463D01*
X31572815Y-39521815D01*
X31493463Y-39618506D01*
X31434498Y-39728820D01*
X31398188Y-39848518D01*
X31385928Y-39973000D01*
X31365000Y-39973000D01*
X31365000Y-34987000D01*
X31385928Y-34987000D01*
X31385928Y-35723000D01*
X31402992Y-35896254D01*
X31453528Y-36062850D01*
X31535595Y-36216386D01*
X31646038Y-36350962D01*
X31780614Y-36461405D01*
X31934150Y-36543472D01*
X32100746Y-36594008D01*
X32274000Y-36611072D01*
X34274000Y-36611072D01*
X34447254Y-36594008D01*
X34613850Y-36543472D01*
X34767386Y-36461405D01*
X34901962Y-36350962D01*
X35012405Y-36216386D01*
X35094472Y-36062850D01*
X35145008Y-35896254D01*
X35162072Y-35723000D01*
X35162072Y-31823000D01*
X35145008Y-31649746D01*
X35094472Y-31483150D01*
X35012405Y-31329614D01*
X34901962Y-31195038D01*
X34767386Y-31084595D01*
X34613850Y-31002528D01*
X34447254Y-30951992D01*
X34274000Y-30934928D01*
X32274000Y-30934928D01*
X32100746Y-30951992D01*
X31934150Y-31002528D01*
X31859515Y-31042421D01*
X31530041Y-30712947D01*
X31505031Y-30682472D01*
X31729511Y-30589490D01*
X31972732Y-30426975D01*
X32179575Y-30220132D01*
X32296100Y-30045740D01*
X32412625Y-30220132D01*
X32619468Y-30426975D01*
X32862689Y-30589490D01*
X33132942Y-30701432D01*
X33419840Y-30758500D01*
X33712360Y-30758500D01*
X33999258Y-30701432D01*
X34269511Y-30589490D01*
X34512732Y-30426975D01*
X34719575Y-30220132D01*
X34836100Y-30045740D01*
X34952625Y-30220132D01*
X35159468Y-30426975D01*
X35402689Y-30589490D01*
X35672942Y-30701432D01*
X35959840Y-30758500D01*
X36252360Y-30758500D01*
X36539258Y-30701432D01*
X36809511Y-30589490D01*
X37052732Y-30426975D01*
X37259575Y-30220132D01*
X37376100Y-30045740D01*
X37492625Y-30220132D01*
X37699468Y-30426975D01*
X37942689Y-30589490D01*
X38212942Y-30701432D01*
X38499840Y-30758500D01*
X38792360Y-30758500D01*
X39079258Y-30701432D01*
X39349511Y-30589490D01*
X39592732Y-30426975D01*
X39799575Y-30220132D01*
X39916100Y-30045740D01*
X40032625Y-30220132D01*
X40239468Y-30426975D01*
X40482689Y-30589490D01*
X40752942Y-30701432D01*
X41039840Y-30758500D01*
X41332360Y-30758500D01*
X41619258Y-30701432D01*
X41889511Y-30589490D01*
X42132732Y-30426975D01*
X42339575Y-30220132D01*
X42456100Y-30045740D01*
X42572625Y-30220132D01*
X42779468Y-30426975D01*
X43022689Y-30589490D01*
X43292942Y-30701432D01*
X43579840Y-30758500D01*
X43872360Y-30758500D01*
X44159258Y-30701432D01*
X44429511Y-30589490D01*
X44672732Y-30426975D01*
X44879575Y-30220132D01*
X44996100Y-30045740D01*
X45112625Y-30220132D01*
X45319468Y-30426975D01*
X45562689Y-30589490D01*
X45832942Y-30701432D01*
X46119840Y-30758500D01*
X46412360Y-30758500D01*
X46699258Y-30701432D01*
X46969511Y-30589490D01*
X47212732Y-30426975D01*
X47419575Y-30220132D01*
X47536100Y-30045740D01*
X47652625Y-30220132D01*
X47859468Y-30426975D01*
X48102689Y-30589490D01*
X48372942Y-30701432D01*
X48659840Y-30758500D01*
X48952360Y-30758500D01*
X49239258Y-30701432D01*
X49509511Y-30589490D01*
X49752732Y-30426975D01*
X49959575Y-30220132D01*
X50076100Y-30045740D01*
X50192625Y-30220132D01*
X50399468Y-30426975D01*
X50642689Y-30589490D01*
X50912942Y-30701432D01*
X51199840Y-30758500D01*
X51492360Y-30758500D01*
X51779258Y-30701432D01*
X52049511Y-30589490D01*
X52292732Y-30426975D01*
X52499575Y-30220132D01*
X52616100Y-30045740D01*
X52732625Y-30220132D01*
X52939468Y-30426975D01*
X53182689Y-30589490D01*
X53452942Y-30701432D01*
X53739840Y-30758500D01*
X54032360Y-30758500D01*
X54319258Y-30701432D01*
X54589511Y-30589490D01*
X54832732Y-30426975D01*
X55039575Y-30220132D01*
X55156100Y-30045740D01*
X55272625Y-30220132D01*
X55479468Y-30426975D01*
X55722689Y-30589490D01*
X55992942Y-30701432D01*
X56279840Y-30758500D01*
X56572360Y-30758500D01*
X56859258Y-30701432D01*
X57129511Y-30589490D01*
X57372732Y-30426975D01*
X57579575Y-30220132D01*
X57696100Y-30045740D01*
X57812625Y-30220132D01*
X58019468Y-30426975D01*
X58262689Y-30589490D01*
X58532942Y-30701432D01*
X58819840Y-30758500D01*
X59112360Y-30758500D01*
X59399258Y-30701432D01*
X59669511Y-30589490D01*
X59912732Y-30426975D01*
X60119575Y-30220132D01*
X60236100Y-30045740D01*
X60352625Y-30220132D01*
X60559468Y-30426975D01*
X60802689Y-30589490D01*
X61072942Y-30701432D01*
X61359840Y-30758500D01*
X61652360Y-30758500D01*
X61939258Y-30701432D01*
X62209511Y-30589490D01*
X62452732Y-30426975D01*
X62659575Y-30220132D01*
X62776100Y-30045740D01*
X62892625Y-30220132D01*
X63099468Y-30426975D01*
X63342689Y-30589490D01*
X63612942Y-30701432D01*
X63899840Y-30758500D01*
X64192360Y-30758500D01*
X64479258Y-30701432D01*
X64749511Y-30589490D01*
X64992732Y-30426975D01*
X65199575Y-30220132D01*
X65316100Y-30045740D01*
X65432625Y-30220132D01*
X65639468Y-30426975D01*
X65882689Y-30589490D01*
X66152942Y-30701432D01*
X66439840Y-30758500D01*
X66732360Y-30758500D01*
X67019258Y-30701432D01*
X67289511Y-30589490D01*
X67532732Y-30426975D01*
X67739575Y-30220132D01*
X67861295Y-30037966D01*
X67930922Y-30154855D01*
X68125831Y-30371088D01*
X68359180Y-30545141D01*
X68622001Y-30670325D01*
X68769210Y-30714976D01*
X68999100Y-30593655D01*
X68999100Y-29400500D01*
X69253100Y-29400500D01*
X69253100Y-30593655D01*
X69482990Y-30714976D01*
X69630199Y-30670325D01*
X69893020Y-30545141D01*
X70126369Y-30371088D01*
X70321278Y-30154855D01*
X70470257Y-29904752D01*
X70567581Y-29630391D01*
X70446914Y-29400500D01*
X69253100Y-29400500D01*
X68999100Y-29400500D01*
X68979100Y-29400500D01*
X68979100Y-29146500D01*
X68999100Y-29146500D01*
X68999100Y-29126500D01*
X69253100Y-29126500D01*
X69253100Y-29146500D01*
X70446914Y-29146500D01*
X70567581Y-28916609D01*
X70470257Y-28642248D01*
X70321278Y-28392145D01*
X70126369Y-28175912D01*
X69896694Y-28004600D01*
X70072732Y-27886975D01*
X70279575Y-27680132D01*
X70442090Y-27436911D01*
X70554032Y-27166658D01*
X70611100Y-26879760D01*
X70611100Y-26587240D01*
X70554032Y-26300342D01*
X70442090Y-26030089D01*
X70279575Y-25786868D01*
X70072732Y-25580025D01*
X69829511Y-25417510D01*
X69559258Y-25305568D01*
X69272360Y-25248500D01*
X68979840Y-25248500D01*
X68692942Y-25305568D01*
X68422689Y-25417510D01*
X68179468Y-25580025D01*
X67972625Y-25786868D01*
X67856100Y-25961260D01*
X67739575Y-25786868D01*
X67532732Y-25580025D01*
X67289511Y-25417510D01*
X67019258Y-25305568D01*
X66732360Y-25248500D01*
X66439840Y-25248500D01*
X66152942Y-25305568D01*
X65882689Y-25417510D01*
X65639468Y-25580025D01*
X65432625Y-25786868D01*
X65316100Y-25961260D01*
X65199575Y-25786868D01*
X64992732Y-25580025D01*
X64749511Y-25417510D01*
X64479258Y-25305568D01*
X64192360Y-25248500D01*
X63899840Y-25248500D01*
X63612942Y-25305568D01*
X63342689Y-25417510D01*
X63099468Y-25580025D01*
X62892625Y-25786868D01*
X62776100Y-25961260D01*
X62659575Y-25786868D01*
X62452732Y-25580025D01*
X62209511Y-25417510D01*
X61939258Y-25305568D01*
X61652360Y-25248500D01*
X61359840Y-25248500D01*
X61072942Y-25305568D01*
X60802689Y-25417510D01*
X60559468Y-25580025D01*
X60352625Y-25786868D01*
X60236100Y-25961260D01*
X60119575Y-25786868D01*
X59912732Y-25580025D01*
X59669511Y-25417510D01*
X59399258Y-25305568D01*
X59112360Y-25248500D01*
X58819840Y-25248500D01*
X58532942Y-25305568D01*
X58262689Y-25417510D01*
X58019468Y-25580025D01*
X57812625Y-25786868D01*
X57696100Y-25961260D01*
X57579575Y-25786868D01*
X57372732Y-25580025D01*
X57129511Y-25417510D01*
X56859258Y-25305568D01*
X56572360Y-25248500D01*
X56279840Y-25248500D01*
X55992942Y-25305568D01*
X55722689Y-25417510D01*
X55479468Y-25580025D01*
X55272625Y-25786868D01*
X55156100Y-25961260D01*
X55039575Y-25786868D01*
X54832732Y-25580025D01*
X54589511Y-25417510D01*
X54319258Y-25305568D01*
X54032360Y-25248500D01*
X53739840Y-25248500D01*
X53452942Y-25305568D01*
X53182689Y-25417510D01*
X52939468Y-25580025D01*
X52732625Y-25786868D01*
X52616100Y-25961260D01*
X52499575Y-25786868D01*
X52292732Y-25580025D01*
X52049511Y-25417510D01*
X51779258Y-25305568D01*
X51492360Y-25248500D01*
X51199840Y-25248500D01*
X50912942Y-25305568D01*
X50642689Y-25417510D01*
X50399468Y-25580025D01*
X50192625Y-25786868D01*
X50076100Y-25961260D01*
X49959575Y-25786868D01*
X49752732Y-25580025D01*
X49509511Y-25417510D01*
X49239258Y-25305568D01*
X48952360Y-25248500D01*
X48659840Y-25248500D01*
X48372942Y-25305568D01*
X48102689Y-25417510D01*
X47859468Y-25580025D01*
X47652625Y-25786868D01*
X47536100Y-25961260D01*
X47419575Y-25786868D01*
X47212732Y-25580025D01*
X46969511Y-25417510D01*
X46699258Y-25305568D01*
X46412360Y-25248500D01*
X46119840Y-25248500D01*
X45832942Y-25305568D01*
X45562689Y-25417510D01*
X45319468Y-25580025D01*
X45112625Y-25786868D01*
X44996100Y-25961260D01*
X44879575Y-25786868D01*
X44672732Y-25580025D01*
X44429511Y-25417510D01*
X44159258Y-25305568D01*
X43872360Y-25248500D01*
X43579840Y-25248500D01*
X43292942Y-25305568D01*
X43022689Y-25417510D01*
X42779468Y-25580025D01*
X42572625Y-25786868D01*
X42456100Y-25961260D01*
X42339575Y-25786868D01*
X42132732Y-25580025D01*
X41889511Y-25417510D01*
X41619258Y-25305568D01*
X41332360Y-25248500D01*
X41039840Y-25248500D01*
X40752942Y-25305568D01*
X40482689Y-25417510D01*
X40239468Y-25580025D01*
X40032625Y-25786868D01*
X39916100Y-25961260D01*
X39799575Y-25786868D01*
X39592732Y-25580025D01*
X39349511Y-25417510D01*
X39079258Y-25305568D01*
X38792360Y-25248500D01*
X38499840Y-25248500D01*
X38212942Y-25305568D01*
X37942689Y-25417510D01*
X37699468Y-25580025D01*
X37492625Y-25786868D01*
X37376100Y-25961260D01*
X37259575Y-25786868D01*
X37052732Y-25580025D01*
X36809511Y-25417510D01*
X36539258Y-25305568D01*
X36252360Y-25248500D01*
X35959840Y-25248500D01*
X35672942Y-25305568D01*
X35402689Y-25417510D01*
X35159468Y-25580025D01*
X34952625Y-25786868D01*
X34836100Y-25961260D01*
X34719575Y-25786868D01*
X34512732Y-25580025D01*
X34269511Y-25417510D01*
X33999258Y-25305568D01*
X33712360Y-25248500D01*
X33419840Y-25248500D01*
X33132942Y-25305568D01*
X32862689Y-25417510D01*
X32619468Y-25580025D01*
X32412625Y-25786868D01*
X32296100Y-25961260D01*
X32179575Y-25786868D01*
X31972732Y-25580025D01*
X31729511Y-25417510D01*
X31459258Y-25305568D01*
X31172360Y-25248500D01*
X30879840Y-25248500D01*
X30592942Y-25305568D01*
X30322689Y-25417510D01*
X30079468Y-25580025D01*
X29872625Y-25786868D01*
X29756100Y-25961260D01*
X29639575Y-25786868D01*
X29432732Y-25580025D01*
X29189511Y-25417510D01*
X28919258Y-25305568D01*
X28632360Y-25248500D01*
X28339840Y-25248500D01*
X28052942Y-25305568D01*
X27782689Y-25417510D01*
X27539468Y-25580025D01*
X27332625Y-25786868D01*
X27216100Y-25961260D01*
X27099575Y-25786868D01*
X26892732Y-25580025D01*
X26649511Y-25417510D01*
X26379258Y-25305568D01*
X26092360Y-25248500D01*
X25799840Y-25248500D01*
X25512942Y-25305568D01*
X25242689Y-25417510D01*
X24999468Y-25580025D01*
X24792625Y-25786868D01*
X24676100Y-25961260D01*
X24559575Y-25786868D01*
X24352732Y-25580025D01*
X24109511Y-25417510D01*
X23839258Y-25305568D01*
X23552360Y-25248500D01*
X23259840Y-25248500D01*
X22972942Y-25305568D01*
X22702689Y-25417510D01*
X22459468Y-25580025D01*
X22252625Y-25786868D01*
X22211444Y-25848500D01*
X22060756Y-25848500D01*
X22019575Y-25786868D01*
X21812732Y-25580025D01*
X21569511Y-25417510D01*
X21299258Y-25305568D01*
X21012360Y-25248500D01*
X20719840Y-25248500D01*
X20432942Y-25305568D01*
X20162689Y-25417510D01*
X19919468Y-25580025D01*
X19712625Y-25786868D01*
X19550110Y-26030089D01*
X19438168Y-26300342D01*
X19381100Y-26587240D01*
X19381100Y-26879760D01*
X19395561Y-26952461D01*
X19133900Y-27214122D01*
X19102988Y-27058719D01*
X18859730Y-26471442D01*
X18506575Y-25942907D01*
X18057093Y-25493425D01*
X17528558Y-25140270D01*
X16941281Y-24897012D01*
X16317832Y-24773000D01*
X15682168Y-24773000D01*
X15058719Y-24897012D01*
X14471442Y-25140270D01*
X13942907Y-25493425D01*
X13493425Y-25942907D01*
X13351996Y-26154571D01*
X13362714Y-26119070D01*
X13574524Y-25720715D01*
X13859675Y-25371086D01*
X14207303Y-25083503D01*
X14604177Y-24868914D01*
X15035161Y-24735502D01*
X15515654Y-24685000D01*
X74466495Y-24685000D01*
X74949016Y-24732312D01*
G37*
G04 #@! TD.AperFunction*
M02*
