M48
; DRILL file {KiCad (5.1.9)-1} date 08/26/21 16:25:25
; FORMAT={-:-/ absolute / metric / decimal}
; #@! TF.CreationDate,2021-08-26T16:25:25+03:00
; #@! TF.GenerationSoftware,Kicad,Pcbnew,(5.1.9)-1
FMAT,2
METRIC
T1C0.400
T2C1.000
T3C2.750
%
G90
G05
T1
X19.558Y-43.658
X27.438Y-39.292
X28.382Y-32.258
X29.464Y-44.196
X29.862Y-49.53
X30.48Y-32.258
X33.274Y-42.173
X39.37Y-39.878
X39.37Y-49.784
X39.624Y-38.1
X46.736Y-49.276
X46.881Y-33.688
X46.99Y-34.681
X47.244Y-50.292
X48.006Y-41.402
X48.006Y-35.306
X48.768Y-40.386
X56.896Y-35.56
X58.166Y-34.544
X58.674Y-41.91
X74.168Y-34.29
X74.422Y-32.258
X75.438Y-41.402
T2
X20.866Y-26.733
X20.866Y-29.273
X23.406Y-26.733
X23.406Y-29.273
X25.946Y-26.733
X25.946Y-29.273
X28.486Y-26.733
X28.486Y-29.273
X31.026Y-26.733
X31.026Y-29.273
X33.566Y-26.733
X33.566Y-29.273
X36.106Y-26.733
X36.106Y-29.273
X38.646Y-26.733
X38.646Y-29.273
X41.186Y-26.733
X41.186Y-29.273
X42.672Y-32.258
X43.726Y-26.733
X43.726Y-29.273
X45.212Y-32.258
X46.266Y-26.733
X46.266Y-29.273
X47.752Y-32.258
X48.806Y-26.733
X48.806Y-29.273
X50.292Y-32.258
X51.346Y-26.733
X51.346Y-29.273
X52.832Y-32.258
X53.886Y-26.733
X53.886Y-29.273
X55.372Y-32.258
X56.426Y-26.733
X56.426Y-29.273
X58.966Y-26.733
X58.966Y-29.273
X61.506Y-26.733
X61.506Y-29.273
X64.046Y-26.733
X64.046Y-29.273
X66.586Y-26.733
X66.586Y-29.273
X69.126Y-26.733
X69.126Y-29.273
X72.39Y-41.95
X72.39Y-44.45
T3
X16.0Y-28.0
X16.0Y-51.0
X74.0Y-28.0
X74.0Y-51.0
T0
M30
